Brassia-Regular.ufo
<glyph name="exclam" format="2">
	<advance width="298"/>
	<unicode hex="0021"/>
	<outline>
		<contour>
			<point x="48" y="700" type="curve"/>
			<point x="220" y="700" type="line"/>
			<point x="240" y="657"/>
			<point x="250" y="582"/>
			<point x="250" y="530" type="curve" smooth="yes"/>
			<point x="250" y="388"/>
			<point x="199" y="335"/>
			<point x="182" y="238" type="curve" smooth="yes"/>
			<point x="178" y="215"/>
			<point x="173" y="188"/>
			<point x="176" y="165" type="curve"/>
			<point x="86" y="165" type="line"/>
			<point x="80" y="194"/>
			<point x="77" y="218"/>
			<point x="77" y="247" type="curve" smooth="yes"/>
			<point x="77" y="335"/>
			<point x="99" y="401"/>
			<point x="99" y="491" type="curve" smooth="yes"/>
			<point x="99" y="557"/>
			<point x="83" y="622"/>
		</contour>
		<contour>
			<point x="68" y="54" type="curve" smooth="yes"/>
			<point x="68" y="19"/>
			<point x="96" y="-10"/>
			<point x="132" y="-10" type="curve" smooth="yes"/>
			<point x="167" y="-10"/>
			<point x="198" y="19"/>
			<point x="198" y="54" type="curve" smooth="yes"/>
			<point x="198" y="90"/>
			<point x="167" y="121"/>
			<point x="132" y="120" type="curve" smooth="yes"/>
			<point x="96" y="119"/>
			<point x="68" y="90"/>
		</contour>
	</outline>
</glyph>
<glyph name="ampersand" format="2">
	<advance width="766"/>
	<unicode hex="0026"/>
	<outline>
		<contour>
			<point x="367" y="488" type="curve"/>
			<point x="456" y="627" type="line"/>
			<point x="428" y="672"/>
			<point x="354" y="708"/>
			<point x="262" y="708" type="curve" smooth="yes"/>
			<point x="140" y="708"/>
			<point x="51" y="636"/>
			<point x="51" y="540" type="curve" smooth="yes"/>
			<point x="51" y="444"/>
			<point x="134" y="325"/>
			<point x="449" y="325" type="curve" smooth="yes"/>
			<point x="645" y="325"/>
			<point x="683" y="343"/>
			<point x="730" y="355" type="curve"/>
			<point x="729" y="506" type="line"/>
			<point x="663" y="466"/>
			<point x="562" y="427"/>
			<point x="437" y="427" type="curve" smooth="yes"/>
			<point x="282" y="427"/>
			<point x="192" y="455"/>
			<point x="192" y="538" type="curve" smooth="yes"/>
			<point x="192" y="586"/>
			<point x="229" y="608"/>
			<point x="255" y="608" type="curve" smooth="yes"/>
			<point x="281" y="608"/>
			<point x="339" y="596"/>
		</contour>
		<contour>
			<point x="519" y="482" type="curve"/>
			<point x="416" y="482" type="line"/>
			<point x="425" y="447"/>
			<point x="427" y="409"/>
			<point x="427" y="382" type="curve" smooth="yes"/>
			<point x="427" y="159"/>
			<point x="357" y="106"/>
			<point x="269" y="106" type="curve" smooth="yes"/>
			<point x="223" y="106"/>
			<point x="174" y="148"/>
			<point x="174" y="198" type="curve" smooth="yes"/>
			<point x="174" y="302"/>
			<point x="298" y="328"/>
			<point x="399" y="328" type="curve"/>
			<point x="340" y="417" type="line"/>
			<point x="198" y="417"/>
			<point x="35" y="329"/>
			<point x="35" y="196" type="curve" smooth="yes"/>
			<point x="35" y="63"/>
			<point x="155" y="-10"/>
			<point x="246" y="-10" type="curve" smooth="yes"/>
			<point x="482" y="-10"/>
			<point x="534" y="248"/>
			<point x="534" y="356" type="curve" smooth="yes"/>
			<point x="534" y="409"/>
			<point x="530" y="448"/>
		</contour>
		<contour>
			<point x="731" y="33" type="curve"/>
			<point x="731" y="189" type="line"/>
			<point x="699" y="138"/>
			<point x="653" y="115"/>
			<point x="610" y="115" type="curve" smooth="yes"/>
			<point x="541" y="115"/>
			<point x="516" y="159"/>
			<point x="516" y="212" type="curve" smooth="yes"/>
			<point x="516" y="220"/>
			<point x="517" y="229"/>
			<point x="518" y="237" type="curve"/>
			<point x="410" y="159" type="line"/>
			<point x="433" y="32"/>
			<point x="550" y="-7"/>
			<point x="616" y="-7" type="curve" smooth="yes"/>
			<point x="662" y="-7"/>
			<point x="703" y="8"/>
		</contour>
	</outline>
</glyph>
<glyph name="quotesingle" format="2">
	<advance width="234"/>
	<unicode hex="0027"/>
	<outline>
		<contour>
			<point x="25" y="538" type="curve"/>
			<point x="70" y="502" type="line"/>
			<point x="152" y="523"/>
			<point x="219" y="591"/>
			<point x="219" y="661" type="curve" smooth="yes"/>
			<point x="219" y="680"/>
			<point x="215" y="699"/>
			<point x="204" y="717" type="curve"/>
			<point x="63" y="700" type="line"/>
			<point x="81" y="682"/>
			<point x="89" y="657"/>
			<point x="89" y="632" type="curve" smooth="yes"/>
			<point x="89" y="593"/>
			<point x="68" y="553"/>
		</contour>
	</outline>
</glyph>
<glyph name="parenleft" format="2">
	<advance width="333"/>
	<unicode hex="0028"/>
	<outline>
		<contour>
			<point x="105" y="0" type="curve"/>
			<point x="288" y="0" type="line"/>
			<point x="220" y="93"/>
			<point x="182" y="201"/>
			<point x="182" y="319" type="curve" smooth="yes"/>
			<point x="181" y="439"/>
			<point x="209" y="569"/>
			<point x="258" y="700" type="curve"/>
			<point x="214" y="700"/>
			<point x="188" y="700"/>
			<point x="160" y="700" type="curve"/>
			<point x="78" y="533"/>
			<point x="45" y="394"/>
			<point x="45" y="273" type="curve" smooth="yes"/>
			<point x="45" y="178"/>
			<point x="66" y="84"/>
		</contour>
	</outline>
</glyph>
<glyph name="parenright" format="2">
	<advance width="333"/>
	<unicode hex="0029"/>
	<outline>
		<contour>
			<point x="45" y="0" type="curve"/>
			<point x="228" y="0" type="line"/>
			<point x="267" y="84"/>
			<point x="288" y="178"/>
			<point x="288" y="273" type="curve" smooth="yes"/>
			<point x="288" y="394"/>
			<point x="255" y="533"/>
			<point x="173" y="700" type="curve"/>
			<point x="145" y="700"/>
			<point x="119" y="700"/>
			<point x="75" y="700" type="curve"/>
			<point x="124" y="569"/>
			<point x="152" y="439"/>
			<point x="151" y="319" type="curve" smooth="yes"/>
			<point x="151" y="201"/>
			<point x="113" y="93"/>
		</contour>
	</outline>
</glyph>
<glyph name="comma" format="2">
	<advance width="269"/>
	<unicode hex="002C"/>
	<outline>
		<contour>
			<point x="50" y="-78" type="curve"/>
			<point x="107" y="-114" type="line"/>
			<point x="183" y="-64"/>
			<point x="223" y="15"/>
			<point x="219" y="101" type="curve"/>
			<point x="88" y="84" type="line"/>
			<point x="95" y="68"/>
			<point x="99" y="50"/>
			<point x="99" y="31" type="curve" smooth="yes"/>
			<point x="99" y="3"/>
			<point x="83" y="-39"/>
		</contour>
	</outline>
</glyph>
<glyph name="hyphen" format="2">
	<advance width="544"/>
	<unicode hex="002D"/>
	<outline>
		<contour>
			<point x="45" y="410" type="curve"/>
			<point x="45" y="245" type="line"/>
			<point x="125" y="257"/>
			<point x="195" y="263"/>
			<point x="268" y="263" type="curve" smooth="yes"/>
			<point x="340" y="263"/>
			<point x="414" y="257"/>
			<point x="499" y="245" type="curve"/>
			<point x="499" y="410" type="line"/>
			<point x="416" y="397"/>
			<point x="343" y="391"/>
			<point x="268" y="391" type="curve" smooth="yes"/>
			<point x="198" y="391"/>
			<point x="127" y="397"/>
		</contour>
	</outline>
</glyph>
<glyph name="period" format="2">
	<advance width="230"/>
	<unicode hex="002E"/>
	<outline>
		<contour>
			<point x="114" y="-10" type="curve" smooth="yes"/>
			<point x="149" y="-10"/>
			<point x="180" y="19"/>
			<point x="180" y="54" type="curve" smooth="yes"/>
			<point x="180" y="90"/>
			<point x="149" y="121"/>
			<point x="114" y="120" type="curve" smooth="yes"/>
			<point x="78" y="119"/>
			<point x="50" y="90"/>
			<point x="50" y="54" type="curve" smooth="yes"/>
			<point x="50" y="19"/>
			<point x="78" y="-10"/>
		</contour>
	</outline>
</glyph>
<glyph name="zero" format="2">
	<advance width="600"/>
	<unicode hex="0030"/>
	<outline>
		<contour>
			<point x="15" y="416" type="curve"/>
			<point x="15" y="277" type="line"/>
			<point x="99" y="277"/>
			<point x="123" y="-10"/>
			<point x="300" y="-10" type="curve" smooth="yes"/>
			<point x="477" y="-10"/>
			<point x="501" y="277"/>
			<point x="585" y="277" type="curve"/>
			<point x="585" y="416" type="line"/>
			<point x="501" y="416"/>
			<point x="477" y="717"/>
			<point x="300" y="717" type="curve" smooth="yes"/>
			<point x="123" y="717"/>
			<point x="99" y="416"/>
		</contour>
		<contour>
			<point x="115" y="345" type="curve"/>
			<point x="115" y="351" type="line"/>
			<point x="185" y="401"/>
			<point x="197" y="556"/>
			<point x="300" y="556" type="curve" smooth="yes"/>
			<point x="403" y="556"/>
			<point x="415" y="401"/>
			<point x="485" y="351" type="curve"/>
			<point x="485" y="345" type="line"/>
			<point x="415" y="295"/>
			<point x="403" y="151"/>
			<point x="300" y="151" type="curve" smooth="yes"/>
			<point x="197" y="151"/>
			<point x="185" y="295"/>
		</contour>
		<contour>
			<point x="248" y="369" type="curve" smooth="yes"/>
			<point x="248" y="339"/>
			<point x="271" y="316"/>
			<point x="300" y="316" type="curve" smooth="yes"/>
			<point x="328" y="316"/>
			<point x="353" y="339"/>
			<point x="353" y="369" type="curve" smooth="yes"/>
			<point x="353" y="398"/>
			<point x="328" y="421"/>
			<point x="300" y="421" type="curve" smooth="yes"/>
			<point x="271" y="421"/>
			<point x="248" y="398"/>
		</contour>
	</outline>
</glyph>
<glyph name="one" format="2">
	<advance width="448"/>
	<unicode hex="0031"/>
	<outline>
		<contour>
			<point x="15" y="606" type="curve"/>
			<point x="37" y="425" type="line"/>
			<point x="134" y="433"/>
			<point x="198" y="474"/>
			<point x="237" y="542" type="curve"/>
			<point x="244" y="540" type="line"/>
			<point x="213" y="482"/>
			<point x="203" y="417"/>
			<point x="203" y="393" type="curve" smooth="yes"/>
			<point x="203" y="315"/>
			<point x="227" y="279"/>
			<point x="227" y="189" type="curve" smooth="yes"/>
			<point x="227" y="123"/>
			<point x="211" y="78"/>
			<point x="176" y="0" type="curve"/>
			<point x="348" y="0" type="line"/>
			<point x="371" y="56"/>
			<point x="379" y="111"/>
			<point x="379" y="174" type="curve" smooth="yes"/>
			<point x="379" y="270"/>
			<point x="338" y="323"/>
			<point x="338" y="492" type="curve" smooth="yes"/>
			<point x="338" y="563"/>
			<point x="372" y="635"/>
			<point x="403" y="700" type="curve"/>
			<point x="253" y="700" type="line"/>
			<point x="227" y="616"/>
			<point x="179" y="592"/>
			<point x="100" y="592" type="curve" smooth="yes"/>
			<point x="72" y="592"/>
			<point x="43" y="597"/>
		</contour>
	</outline>
</glyph>
<glyph name="two" format="2">
	<advance width="542"/>
	<unicode hex="0032"/>
	<outline>
		<contour>
			<point x="25" y="0" type="curve"/>
			<point x="517" y="0" type="line"/>
			<point x="468" y="153" type="line"/>
			<point x="414" y="129"/>
			<point x="336" y="101"/>
			<point x="275" y="94" type="curve"/>
			<point x="274" y="98" type="line"/>
			<point x="303" y="126"/>
			<point x="359" y="197"/>
			<point x="406" y="272" type="curve" smooth="yes"/>
			<point x="461" y="358"/>
			<point x="494" y="446"/>
			<point x="494" y="532" type="curve" smooth="yes"/>
			<point x="494" y="659"/>
			<point x="388" y="723"/>
			<point x="281" y="723" type="curve" smooth="yes"/>
			<point x="150" y="723"/>
			<point x="62" y="638"/>
			<point x="62" y="524" type="curve" smooth="yes"/>
			<point x="62" y="496"/>
			<point x="67" y="467"/>
			<point x="78" y="438" type="curve"/>
			<point x="232" y="438" type="line"/>
			<point x="215" y="473"/>
			<point x="206" y="499"/>
			<point x="206" y="528" type="curve" smooth="yes"/>
			<point x="206" y="579"/>
			<point x="242" y="604"/>
			<point x="279" y="604" type="curve" smooth="yes"/>
			<point x="316" y="604"/>
			<point x="354" y="578"/>
			<point x="354" y="524" type="curve" smooth="yes"/>
			<point x="354" y="382"/>
			<point x="151" y="127"/>
		</contour>
	</outline>
</glyph>
<glyph name="three" format="2">
	<advance width="502"/>
	<unicode hex="0033"/>
	<outline>
		<contour>
			<point x="59" y="490" type="curve"/>
			<point x="183" y="490" type="line"/>
			<point x="170" y="505"/>
			<point x="160" y="531"/>
			<point x="160" y="557" type="curve" smooth="yes"/>
			<point x="160" y="593"/>
			<point x="195" y="615"/>
			<point x="232" y="615" type="curve" smooth="yes"/>
			<point x="273" y="615"/>
			<point x="316" y="588"/>
			<point x="316" y="547" type="curve" smooth="yes"/>
			<point x="316" y="464"/>
			<point x="221" y="430"/>
			<point x="132" y="430" type="curve"/>
			<point x="132" y="324" type="line"/>
			<point x="186" y="324"/>
			<point x="232" y="342"/>
			<point x="300" y="385" type="curve"/>
			<point x="300" y="385"/>
			<point x="300" y="389"/>
			<point x="300" y="389" type="curve" smooth="yes"/>
			<point x="408" y="428"/>
			<point x="452" y="486"/>
			<point x="452" y="563" type="curve" smooth="yes"/>
			<point x="452" y="666"/>
			<point x="376" y="731"/>
			<point x="232" y="731" type="curve" smooth="yes"/>
			<point x="116" y="731"/>
			<point x="35" y="670"/>
			<point x="35" y="580" type="curve" smooth="yes"/>
			<point x="35" y="552"/>
			<point x="42" y="522"/>
		</contour>
		<contour>
			<point x="198" y="220" type="curve"/>
			<point x="64" y="220" type="line"/>
			<point x="47" y="187"/>
			<point x="40" y="158"/>
			<point x="40" y="131" type="curve" smooth="yes"/>
			<point x="40" y="35"/>
			<point x="121" y="-20"/>
			<point x="226" y="-20" type="curve" smooth="yes"/>
			<point x="376" y="-20"/>
			<point x="467" y="35"/>
			<point x="467" y="187" type="curve" smooth="yes"/>
			<point x="467" y="300"/>
			<point x="408" y="355"/>
			<point x="300" y="385" type="curve"/>
			<point x="300" y="389" type="line"/>
			<point x="232" y="416"/>
			<point x="184" y="420"/>
			<point x="132" y="420" type="curve"/>
			<point x="132" y="314" type="line"/>
			<point x="226" y="314"/>
			<point x="331" y="286"/>
			<point x="331" y="183" type="curve" smooth="yes"/>
			<point x="331" y="132"/>
			<point x="295" y="96"/>
			<point x="235" y="96" type="curve" smooth="yes"/>
			<point x="203" y="96"/>
			<point x="165" y="118"/>
			<point x="165" y="153" type="curve" smooth="yes"/>
			<point x="165" y="179"/>
			<point x="185" y="205"/>
		</contour>
	</outline>
</glyph>
<glyph name="four" format="2">
	<advance width="549"/>
	<unicode hex="0034"/>
	<outline>
		<contour>
			<point x="479" y="0" type="curve"/>
			<point x="307" y="0" type="line"/>
			<point x="329" y="52"/>
			<point x="344" y="110"/>
			<point x="352" y="170" type="curve"/>
			<point x="358" y="223"/>
			<point x="361" y="275"/>
			<point x="361" y="328" type="curve" smooth="yes"/>
			<point x="361" y="455"/>
			<point x="348" y="579"/>
			<point x="306" y="700" type="curve"/>
			<point x="414" y="700" type="line"/>
			<point x="469" y="540"/>
			<point x="504" y="384"/>
			<point x="504" y="216" type="curve" smooth="yes"/>
			<point x="504" y="142"/>
			<point x="496" y="69"/>
		</contour>
		<contour>
			<point x="105" y="700" type="curve"/>
			<point x="251" y="700" type="line"/>
			<point x="253" y="692"/>
			<point x="253" y="684"/>
			<point x="253" y="676" type="curve" smooth="yes"/>
			<point x="253" y="590"/>
			<point x="163" y="532"/>
			<point x="163" y="446" type="curve" smooth="yes"/>
			<point x="163" y="362"/>
			<point x="261" y="330"/>
			<point x="308" y="330" type="curve" smooth="yes"/>
			<point x="324" y="330"/>
			<point x="344" y="329"/>
			<point x="357" y="323" type="curve"/>
			<point x="361" y="325" type="line"/>
			<point x="373" y="348" type="line"/>
			<point x="436" y="348" type="line"/>
			<point x="436" y="170" type="line"/>
			<point x="352" y="170" type="line"/>
			<point x="356" y="199"/>
			<point x="327" y="216"/>
			<point x="291" y="216" type="curve" smooth="yes"/>
			<point x="200" y="216"/>
			<point x="35" y="264"/>
			<point x="35" y="433" type="curve" smooth="yes"/>
			<point x="35" y="500"/>
			<point x="111" y="624"/>
			<point x="111" y="669" type="curve" smooth="yes"/>
			<point x="111" y="679"/>
			<point x="109" y="690"/>
		</contour>
	</outline>
</glyph>
<glyph name="five" format="2">
	<advance width="519"/>
	<unicode hex="0035"/>
	<outline>
		<contour>
			<point x="120" y="596" type="line"/>
			<point x="225" y="591"/>
			<point x="311" y="577"/>
			<point x="414" y="547" type="curve"/>
			<point x="463" y="700" type="line"/>
			<point x="110" y="700" type="line"/>
		</contour>
		<contour>
			<point x="61" y="297" type="curve"/>
			<point x="192" y="382" type="line"/>
			<point x="187" y="421"/>
			<point x="185" y="441"/>
			<point x="185" y="480" type="curve" smooth="yes"/>
			<point x="185" y="562"/>
			<point x="201" y="641"/>
			<point x="221" y="700" type="curve"/>
			<point x="162" y="700"/>
			<point x="136" y="700"/>
			<point x="108" y="700" type="curve"/>
			<point x="74" y="615"/>
			<point x="56" y="498"/>
			<point x="56" y="391" type="curve" smooth="yes"/>
			<point x="56" y="359"/>
			<point x="58" y="327"/>
		</contour>
		<contour>
			<point x="55" y="151" type="curve" smooth="yes"/>
			<point x="55" y="35"/>
			<point x="136" y="-20"/>
			<point x="241" y="-20" type="curve" smooth="yes"/>
			<point x="391" y="-20"/>
			<point x="484" y="82"/>
			<point x="484" y="233" type="curve" smooth="yes"/>
			<point x="484" y="366"/>
			<point x="424" y="472"/>
			<point x="306" y="472" type="curve" smooth="yes"/>
			<point x="271" y="472"/>
			<point x="221" y="467"/>
			<point x="173" y="440" type="curve"/>
			<point x="61" y="297" type="line"/>
			<point x="128" y="329"/>
			<point x="191" y="349"/>
			<point x="240" y="349" type="curve" smooth="yes"/>
			<point x="305" y="349"/>
			<point x="348" y="314"/>
			<point x="348" y="233" type="curve" smooth="yes"/>
			<point x="348" y="180"/>
			<point x="310" y="96"/>
			<point x="250" y="96" type="curve" smooth="yes"/>
			<point x="218" y="96"/>
			<point x="180" y="118"/>
			<point x="180" y="173" type="curve" smooth="yes"/>
			<point x="180" y="199"/>
			<point x="200" y="225"/>
			<point x="213" y="240" type="curve"/>
			<point x="79" y="240" type="line"/>
			<point x="62" y="207"/>
			<point x="55" y="178"/>
		</contour>
	</outline>
</glyph>
<glyph name="seven" format="2">
	<advance width="531"/>
	<unicode hex="0037"/>
	<outline>
		<contour>
			<point x="306" y="616" type="line"/>
			<point x="306" y="588" type="line"/>
			<point x="216" y="543"/>
			<point x="87" y="231"/>
			<point x="87" y="-3" type="curve"/>
			<point x="285" y="0" type="line"/>
			<point x="277" y="34"/>
			<point x="273" y="75"/>
			<point x="273" y="118" type="curve" smooth="yes"/>
			<point x="273" y="324"/>
			<point x="360" y="599"/>
			<point x="506" y="599" type="curve"/>
			<point x="506" y="614" type="line"/>
		</contour>
		<contour>
			<point x="74" y="547" type="line"/>
			<point x="218" y="589"/>
			<point x="331" y="599"/>
			<point x="506" y="599" type="curve"/>
			<point x="506" y="700" type="line"/>
			<point x="25" y="700" type="line"/>
		</contour>
	</outline>
</glyph>
<glyph name="eight" format="2">
	<advance width="573"/>
	<unicode hex="0038"/>
	<outline>
		<contour>
			<point x="185" y="539" type="curve"/>
			<point x="50" y="539" type="line"/>
			<point x="50" y="369"/>
			<point x="409" y="296"/>
			<point x="409" y="195" type="curve"/>
			<point x="548" y="186" type="line"/>
			<point x="548" y="377"/>
			<point x="185" y="452"/>
		</contour>
		<contour>
			<point x="50" y="539" type="curve"/>
			<point x="185" y="539" type="line"/>
			<point x="185" y="586"/>
			<point x="239" y="604"/>
			<point x="286" y="604" type="curve" smooth="yes"/>
			<point x="333" y="604"/>
			<point x="388" y="586"/>
			<point x="388" y="539" type="curve" smooth="yes"/>
			<point x="388" y="498"/>
			<point x="315" y="435"/>
			<point x="226" y="393" type="curve"/>
			<point x="339" y="325" type="line"/>
			<point x="422" y="380"/>
			<point x="523" y="457"/>
			<point x="523" y="539" type="curve" smooth="yes"/>
			<point x="523" y="683"/>
			<point x="368" y="721"/>
			<point x="286" y="721" type="curve" smooth="yes"/>
			<point x="204" y="721"/>
			<point x="50" y="683"/>
		</contour>
		<contour>
			<point x="25" y="186" type="curve" smooth="yes"/>
			<point x="25" y="76"/>
			<point x="120" y="-12"/>
			<point x="286" y="-12" type="curve" smooth="yes"/>
			<point x="438" y="-12"/>
			<point x="548" y="76"/>
			<point x="548" y="186" type="curve"/>
			<point x="409" y="195" type="line"/>
			<point x="409" y="142"/>
			<point x="358" y="108"/>
			<point x="286" y="106" type="curve" smooth="yes"/>
			<point x="215" y="104"/>
			<point x="164" y="142"/>
			<point x="164" y="195" type="curve" smooth="yes"/>
			<point x="164" y="230"/>
			<point x="246" y="302"/>
			<point x="339" y="345" type="curve"/>
			<point x="226" y="413" type="line"/>
			<point x="134" y="354"/>
			<point x="25" y="265"/>
		</contour>
	</outline>
</glyph>
<glyph name="nine" format="2">
	<advance width="569"/>
	<unicode hex="0039"/>
	<outline>
		<contour>
			<point x="244" y="-9" type="curve" smooth="yes"/>
			<point x="423" y="-9"/>
			<point x="534" y="150"/>
			<point x="534" y="334" type="curve" smooth="yes"/>
			<point x="534" y="539"/>
			<point x="456" y="710"/>
			<point x="256" y="710" type="curve" smooth="yes"/>
			<point x="131" y="710"/>
			<point x="25" y="599"/>
			<point x="25" y="466" type="curve" smooth="yes"/>
			<point x="25" y="316"/>
			<point x="131" y="241"/>
			<point x="246" y="241" type="curve" smooth="yes"/>
			<point x="305" y="241"/>
			<point x="364" y="269"/>
			<point x="395" y="330" type="curve"/>
			<point x="399" y="330" type="line"/>
			<point x="399" y="178"/>
			<point x="331" y="114"/>
			<point x="258" y="114" type="curve" smooth="yes"/>
			<point x="217" y="114"/>
			<point x="173" y="134"/>
			<point x="132" y="178" type="curve"/>
			<point x="49" y="83" type="line"/>
			<point x="79" y="41"/>
			<point x="163" y="-9"/>
		</contour>
		<contour>
			<point x="375" y="466" type="curve" smooth="yes"/>
			<point x="375" y="399"/>
			<point x="314" y="360"/>
			<point x="264" y="360" type="curve" smooth="yes"/>
			<point x="198" y="360"/>
			<point x="160" y="399"/>
			<point x="160" y="466" type="curve" smooth="yes"/>
			<point x="160" y="530"/>
			<point x="202" y="592"/>
			<point x="264" y="592" type="curve" smooth="yes"/>
			<point x="329" y="592"/>
			<point x="375" y="530"/>
		</contour>
	</outline>
</glyph>
<glyph name="colon" format="2">
	<advance width="230"/>
	<unicode hex="003A"/>
	<outline>
		<contour>
			<point x="114" y="-10" type="curve" smooth="yes"/>
			<point x="149" y="-10"/>
			<point x="180" y="19"/>
			<point x="180" y="54" type="curve" smooth="yes"/>
			<point x="180" y="90"/>
			<point x="149" y="121"/>
			<point x="114" y="120" type="curve" smooth="yes"/>
			<point x="78" y="119"/>
			<point x="50" y="90"/>
			<point x="50" y="54" type="curve" smooth="yes"/>
			<point x="50" y="19"/>
			<point x="78" y="-10"/>
		</contour>
		<contour>
			<point x="114" y="220" type="curve" smooth="yes"/>
			<point x="149" y="220"/>
			<point x="180" y="249"/>
			<point x="180" y="284" type="curve" smooth="yes"/>
			<point x="180" y="320"/>
			<point x="149" y="351"/>
			<point x="114" y="350" type="curve" smooth="yes"/>
			<point x="78" y="349"/>
			<point x="50" y="320"/>
			<point x="50" y="284" type="curve" smooth="yes"/>
			<point x="50" y="249"/>
			<point x="78" y="220"/>
		</contour>
	</outline>
</glyph>
<glyph name="semicolon" format="2">
	<advance width="270"/>
	<unicode hex="003B"/>
	<outline>
		<contour>
			<point x="154" y="220" type="curve" smooth="yes"/>
			<point x="189" y="220"/>
			<point x="220" y="249"/>
			<point x="220" y="284" type="curve" smooth="yes"/>
			<point x="220" y="320"/>
			<point x="189" y="351"/>
			<point x="154" y="350" type="curve" smooth="yes"/>
			<point x="118" y="349"/>
			<point x="90" y="320"/>
			<point x="90" y="284" type="curve" smooth="yes"/>
			<point x="90" y="249"/>
			<point x="118" y="220"/>
		</contour>
		<contour>
			<point x="50" y="-78" type="curve"/>
			<point x="107" y="-114" type="line"/>
			<point x="183" y="-64"/>
			<point x="223" y="15"/>
			<point x="219" y="101" type="curve"/>
			<point x="88" y="84" type="line"/>
			<point x="95" y="68"/>
			<point x="99" y="50"/>
			<point x="99" y="31" type="curve" smooth="yes"/>
			<point x="99" y="3"/>
			<point x="83" y="-39"/>
		</contour>
	</outline>
</glyph>
<glyph name="question" format="2">
	<advance width="517"/>
	<unicode hex="003F"/>
	<outline>
		<contour>
			<point x="182" y="54" type="curve" smooth="yes"/>
			<point x="182" y="19"/>
			<point x="210" y="-10"/>
			<point x="246" y="-10" type="curve" smooth="yes"/>
			<point x="281" y="-10"/>
			<point x="312" y="19"/>
			<point x="312" y="54" type="curve" smooth="yes"/>
			<point x="312" y="90"/>
			<point x="281" y="121"/>
			<point x="246" y="120" type="curve" smooth="yes"/>
			<point x="210" y="119"/>
			<point x="182" y="90"/>
		</contour>
		<contour>
			<point x="15" y="470" type="curve"/>
			<point x="159" y="470" type="line"/>
			<point x="159" y="559"/>
			<point x="195" y="585"/>
			<point x="246" y="585" type="curve" smooth="yes"/>
			<point x="292" y="585"/>
			<point x="343" y="557"/>
			<point x="343" y="500" type="curve" smooth="yes"/>
			<point x="343" y="373"/>
			<point x="170" y="366"/>
			<point x="170" y="228" type="curve" smooth="yes"/>
			<point x="170" y="202"/>
			<point x="182" y="165"/>
			<point x="187" y="165" type="curve"/>
			<point x="296" y="165" type="line"/>
			<point x="292" y="165"/>
			<point x="280" y="194"/>
			<point x="280" y="215" type="curve" smooth="yes"/>
			<point x="280" y="301"/>
			<point x="492" y="329"/>
			<point x="492" y="500" type="curve" smooth="yes"/>
			<point x="492" y="641"/>
			<point x="370" y="709"/>
			<point x="246" y="709" type="curve" smooth="yes"/>
			<point x="137" y="709"/>
			<point x="15" y="641"/>
		</contour>
	</outline>
</glyph>
<glyph name="at" format="2">
	<advance width="871"/>
	<unicode hex="0040"/>
	<outline>
		<contour>
			<point x="465" y="720" type="curve" smooth="yes"/>
			<point x="192" y="720"/>
			<point x="30" y="540"/>
			<point x="30" y="332" type="curve" smooth="yes"/>
			<point x="30" y="155"/>
			<point x="151" y="-32"/>
			<point x="397" y="-32" type="curve" smooth="yes"/>
			<point x="528" y="-32"/>
			<point x="625" y="19"/>
			<point x="642" y="36" type="curve"/>
			<point x="566" y="146" type="line"/>
			<point x="520" y="119"/>
			<point x="479" y="106"/>
			<point x="431" y="106" type="curve" smooth="yes"/>
			<point x="266" y="106"/>
			<point x="167" y="209"/>
			<point x="167" y="348" type="curve" smooth="yes"/>
			<point x="167" y="486"/>
			<point x="259" y="620"/>
			<point x="465" y="620" type="curve" smooth="yes"/>
			<point x="610" y="620"/>
			<point x="691" y="526"/>
			<point x="691" y="378" type="curve" smooth="yes"/>
			<point x="691" y="326"/>
			<point x="671" y="298"/>
			<point x="653" y="298" type="curve" smooth="yes"/>
			<point x="635" y="298"/>
			<point x="620" y="324"/>
			<point x="620" y="378" type="curve" smooth="yes"/>
			<point x="620" y="480"/>
			<point x="550" y="545"/>
			<point x="465" y="545" type="curve" smooth="yes"/>
			<point x="359" y="545"/>
			<point x="242" y="476"/>
			<point x="242" y="348" type="curve" smooth="yes"/>
			<point x="242" y="245"/>
			<point x="314" y="180"/>
			<point x="392" y="180" type="curve" smooth="yes"/>
			<point x="492" y="180"/>
			<point x="525" y="298"/>
			<point x="596" y="298" type="curve"/>
			<point x="602" y="387" type="line"/>
			<point x="465" y="387"/>
			<point x="442" y="279"/>
			<point x="392" y="279" type="curve" smooth="yes"/>
			<point x="360" y="279"/>
			<point x="334" y="302"/>
			<point x="334" y="348" type="curve" smooth="yes"/>
			<point x="334" y="393"/>
			<point x="379" y="443"/>
			<point x="465" y="443" type="curve" smooth="yes"/>
			<point x="500" y="443"/>
			<point x="518" y="413"/>
			<point x="518" y="340" type="curve" smooth="yes"/>
			<point x="518" y="287"/>
			<point x="544" y="180"/>
			<point x="658" y="180" type="curve" smooth="yes"/>
			<point x="758" y="180"/>
			<point x="826" y="274"/>
			<point x="826" y="375" type="curve" smooth="yes"/>
			<point x="826" y="559"/>
			<point x="695" y="720"/>
		</contour>
	</outline>
</glyph>
<glyph name="A" format="2">
	<advance width="724"/>
	<unicode hex="0041"/>
	<anchor x="659" y="10" name="ogonek"/>
	<anchor x="362" y="0" name="bottom"/>
	<anchor x="362" y="700" name="top"/>
	<outline>
		<contour>
			<point x="374" y="700" type="line"/>
			<point x="308" y="700" type="line"/>
			<point x="308" y="555"/>
			<point x="35" y="373"/>
			<point x="35" y="135" type="curve" smooth="yes"/>
			<point x="35" y="90"/>
			<point x="35" y="53"/>
			<point x="45" y="0" type="curve"/>
			<point x="201" y="0" type="line"/>
			<point x="199" y="13"/>
			<point x="196" y="26"/>
			<point x="196" y="38" type="curve" smooth="yes"/>
			<point x="196" y="57"/>
			<point x="205" y="68"/>
			<point x="222" y="70" type="curve" smooth="yes"/>
			<point x="249" y="73"/>
			<point x="311" y="76"/>
			<point x="362" y="76" type="curve"/>
			<point x="362" y="178" type="line"/>
			<point x="302" y="178"/>
			<point x="208" y="182"/>
			<point x="170" y="207" type="curve"/>
			<point x="188" y="159" type="line"/>
			<point x="188" y="316"/>
			<point x="360" y="470"/>
			<point x="360" y="560" type="curve"/>
			<point x="374" y="560" type="line"/>
		</contour>
		<contour>
			<point x="416" y="700" type="curve"/>
			<point x="350" y="700" type="line"/>
			<point x="350" y="560" type="line"/>
			<point x="364" y="560" type="line"/>
			<point x="364" y="470"/>
			<point x="536" y="316"/>
			<point x="536" y="159" type="curve"/>
			<point x="554" y="207" type="line"/>
			<point x="516" y="182"/>
			<point x="422" y="178"/>
			<point x="362" y="178" type="curve"/>
			<point x="362" y="76" type="line"/>
			<point x="413" y="76"/>
			<point x="475" y="73"/>
			<point x="502" y="70" type="curve" smooth="yes"/>
			<point x="519" y="68"/>
			<point x="528" y="57"/>
			<point x="528" y="38" type="curve" smooth="yes"/>
			<point x="528" y="26"/>
			<point x="525" y="13"/>
			<point x="523" y="0" type="curve"/>
			<point x="679" y="0" type="line"/>
			<point x="689" y="53"/>
			<point x="689" y="90"/>
			<point x="689" y="135" type="curve" smooth="yes"/>
			<point x="689" y="373"/>
			<point x="416" y="555"/>
		</contour>
		<component base="_part.pupil" xOffset="-10" yOffset="10"/>
	</outline>
</glyph>
<glyph name="B" format="2">
	<advance width="637"/>
	<unicode hex="0042"/>
	<anchor x="326" y="700" name="top"/>
	<anchor x="326" y="0" name="bottom"/>
	<outline>
		<contour>
			<point x="70" y="0" type="curve"/>
			<point x="242" y="0" type="line"/>
			<point x="203" y="91"/>
			<point x="188" y="198"/>
			<point x="188" y="304" type="curve" smooth="yes"/>
			<point x="188" y="451"/>
			<point x="207" y="597"/>
			<point x="243" y="700" type="curve"/>
			<point x="135" y="700" type="line"/>
			<point x="80" y="540"/>
			<point x="45" y="384"/>
			<point x="45" y="216" type="curve" smooth="yes"/>
			<point x="45" y="142"/>
			<point x="53" y="69"/>
		</contour>
		<contour>
			<point x="74" y="218" type="curve"/>
			<point x="70" y="0" type="line"/>
			<point x="188" y="0"/>
			<point x="310" y="1"/>
			<point x="410" y="1" type="curve" smooth="yes"/>
			<point x="510" y="1"/>
			<point x="612" y="51"/>
			<point x="612" y="180" type="curve" smooth="yes"/>
			<point x="612" y="317"/>
			<point x="510" y="354"/>
			<point x="406" y="390" type="curve" smooth="yes"/>
			<point x="351" y="408"/>
			<point x="298" y="434"/>
			<point x="260" y="458" type="curve" smooth="yes"/>
			<point x="228" y="478"/>
			<point x="207" y="504"/>
			<point x="207" y="542" type="curve"/>
			<point x="89" y="542" type="line"/>
			<point x="89" y="475"/>
			<point x="107" y="387"/>
			<point x="139" y="356" type="curve"/>
			<point x="193" y="370" type="line"/>
			<point x="240" y="295"/>
			<point x="470" y="289"/>
			<point x="470" y="200" type="curve" smooth="yes"/>
			<point x="470" y="145"/>
			<point x="424" y="115"/>
			<point x="323" y="115" type="curve" smooth="yes"/>
			<point x="225" y="115"/>
			<point x="130" y="158"/>
		</contour>
		<contour>
			<point x="404" y="394" type="line"/>
			<point x="486" y="394"/>
			<point x="549" y="465"/>
			<point x="549" y="553" type="curve" smooth="yes"/>
			<point x="549" y="635"/>
			<point x="440" y="700"/>
			<point x="243" y="700" type="curve"/>
			<point x="135" y="700" type="line"/>
			<point x="135" y="542" type="line"/>
			<point x="207" y="542" type="line"/>
			<point x="207" y="567"/>
			<point x="230" y="612"/>
			<point x="253" y="629" type="curve"/>
			<point x="179" y="581" type="line"/>
			<point x="210" y="595"/>
			<point x="244" y="604"/>
			<point x="307" y="604" type="curve" smooth="yes"/>
			<point x="381" y="604"/>
			<point x="417" y="572"/>
			<point x="417" y="524" type="curve" smooth="yes"/>
			<point x="417" y="484"/>
			<point x="384" y="441"/>
			<point x="327" y="441" type="curve" smooth="yes"/>
			<point x="307" y="441"/>
			<point x="285" y="446"/>
			<point x="260" y="458" type="curve"/>
			<point x="260" y="371" type="line"/>
			<point x="404" y="365" type="line"/>
		</contour>
	</outline>
</glyph>
<glyph name="C" format="2">
	<advance width="595"/>
	<unicode hex="0043"/>
	<anchor x="291" y="700" name="top"/>
	<anchor x="291" y="0" name="bottom"/>
	<outline>
		<contour>
			<point x="232" y="539" type="curve"/>
			<point x="244" y="700" type="line"/>
			<point x="139" y="700" type="line"/>
			<point x="139" y="500"/>
			<point x="35" y="343"/>
			<point x="35" y="216" type="curve" smooth="yes"/>
			<point x="35" y="99"/>
			<point x="139" y="-20"/>
			<point x="291" y="-20" type="curve" smooth="yes"/>
			<point x="479" y="-20"/>
			<point x="559" y="133"/>
			<point x="560" y="233" type="curve"/>
			<point x="413" y="233" type="line"/>
			<point x="413" y="181"/>
			<point x="379" y="119"/>
			<point x="306" y="119" type="curve" smooth="yes"/>
			<point x="224" y="119"/>
			<point x="177" y="178"/>
			<point x="177" y="246" type="curve" smooth="yes"/>
			<point x="177" y="309"/>
			<point x="232" y="458"/>
		</contour>
		<contour>
			<point x="244" y="700" type="curve"/>
			<point x="139" y="700" type="line"/>
			<point x="139" y="651"/>
			<point x="180" y="584"/>
			<point x="232" y="539" type="curve"/>
			<point x="236" y="540" type="line"/>
			<point x="283" y="465"/>
			<point x="414" y="500"/>
			<point x="414" y="379" type="curve"/>
			<point x="560" y="379" type="line"/>
			<point x="562" y="648"/>
			<point x="244" y="563"/>
		</contour>
	</outline>
</glyph>
<glyph name="D" format="2">
	<advance width="647"/>
	<unicode hex="0044"/>
	<anchor x="324" y="350" name="center"/>
	<anchor x="324" y="0" name="bottom"/>
	<anchor x="174" y="700" name="top"/>
	<outline>
		<contour>
			<point x="70" y="0" type="curve"/>
			<point x="237" y="0" type="line"/>
			<point x="198" y="91"/>
			<point x="183" y="198"/>
			<point x="183" y="304" type="curve" smooth="yes"/>
			<point x="183" y="451"/>
			<point x="202" y="597"/>
			<point x="238" y="700" type="curve"/>
			<point x="179" y="700"/>
			<point x="163" y="700"/>
			<point x="135" y="700" type="curve"/>
			<point x="70" y="540"/>
			<point x="45" y="384"/>
			<point x="45" y="216" type="curve" smooth="yes"/>
			<point x="45" y="142"/>
			<point x="53" y="69"/>
		</contour>
		<contour>
			<point x="127" y="173" type="curve"/>
			<point x="127" y="0" type="line"/>
			<point x="199" y="0"/>
			<point x="281" y="0"/>
			<point x="344" y="0" type="curve" smooth="yes"/>
			<point x="400" y="0"/>
			<point x="617" y="0"/>
			<point x="617" y="206" type="curve" smooth="yes"/>
			<point x="617" y="352"/>
			<point x="489" y="442"/>
			<point x="380" y="502" type="curve" smooth="yes"/>
			<point x="298" y="547"/>
			<point x="232" y="599"/>
			<point x="232" y="662" type="curve" smooth="yes"/>
			<point x="232" y="674"/>
			<point x="234" y="686"/>
			<point x="238" y="700" type="curve"/>
			<point x="189" y="700"/>
			<point x="166" y="700"/>
			<point x="135" y="700" type="curve"/>
			<point x="124" y="650"/>
			<point x="134" y="524"/>
			<point x="155" y="482" type="curve"/>
			<point x="199" y="510" type="line"/>
			<point x="228" y="458"/>
			<point x="282" y="425"/>
			<point x="335" y="395" type="curve" smooth="yes"/>
			<point x="450" y="330"/>
			<point x="479" y="269"/>
			<point x="479" y="218" type="curve" smooth="yes"/>
			<point x="479" y="142"/>
			<point x="420" y="108"/>
			<point x="343" y="108" type="curve" smooth="yes"/>
			<point x="226" y="108"/>
			<point x="141" y="152"/>
		</contour>
		<contour>
			<point x="312" y="216" type="curve" smooth="yes"/>
			<point x="338" y="216"/>
			<point x="360" y="237"/>
			<point x="360" y="263" type="curve" smooth="yes"/>
			<point x="360" y="289"/>
			<point x="338" y="311"/>
			<point x="312" y="311" type="curve" smooth="yes"/>
			<point x="286" y="311"/>
			<point x="265" y="289"/>
			<point x="265" y="263" type="curve" smooth="yes"/>
			<point x="265" y="237"/>
			<point x="286" y="216"/>
		</contour>
	</outline>
</glyph>
<glyph name="E" format="2">
	<advance width="646"/>
	<unicode hex="0045"/>
	<anchor x="590" y="10" name="ogonek"/>
	<anchor x="328" y="700" name="top"/>
	<anchor x="20" y="700" name="topleft"/>
	<anchor x="328" y="0" name="bottom"/>
	<outline>
		<contour>
			<point x="45" y="216" type="curve" smooth="yes"/>
			<point x="45" y="142"/>
			<point x="53" y="69"/>
			<point x="70" y="0" type="curve"/>
			<point x="616" y="0" type="line"/>
			<point x="567" y="153" type="line"/>
			<point x="444" y="117"/>
			<point x="344" y="105"/>
			<point x="209" y="102" type="curve"/>
			<point x="194" y="167"/>
			<point x="188" y="235"/>
			<point x="188" y="304" type="curve" smooth="yes"/>
			<point x="188" y="358"/>
			<point x="191" y="412"/>
			<point x="196" y="464" type="curve"/>
			<point x="278" y="459"/>
			<point x="334" y="334"/>
			<point x="510" y="334" type="curve"/>
			<point x="510" y="483" type="line"/>
			<point x="495" y="480"/>
			<point x="480" y="478"/>
			<point x="465" y="478" type="curve" smooth="yes"/>
			<point x="343" y="478"/>
			<point x="303" y="574"/>
			<point x="221" y="574" type="curve" smooth="yes"/>
			<point x="218" y="574"/>
			<point x="208" y="574"/>
			<point x="201" y="573" type="curve"/>
			<point x="201" y="577" type="line"/>
			<point x="265" y="602"/>
			<point x="328" y="609"/>
			<point x="373" y="609" type="curve" smooth="yes"/>
			<point x="426" y="609"/>
			<point x="480" y="599"/>
			<point x="520" y="582" type="curve"/>
			<point x="520" y="700" type="line"/>
			<point x="135" y="700" type="line"/>
			<point x="70" y="540"/>
			<point x="45" y="384"/>
		</contour>
	</outline>
</glyph>
<glyph name="F" format="2">
	<advance width="545"/>
	<unicode hex="0046"/>
	<anchor x="275" y="700" name="top"/>
	<anchor x="275" y="0" name="bottom"/>
	<outline>
		<contour>
			<point x="45" y="216" type="curve" smooth="yes"/>
			<point x="45" y="142"/>
			<point x="53" y="69"/>
			<point x="70" y="0" type="curve"/>
			<point x="242" y="0" type="line"/>
			<point x="203" y="91"/>
			<point x="188" y="198"/>
			<point x="188" y="304" type="curve" smooth="yes"/>
			<point x="188" y="358"/>
			<point x="191" y="412"/>
			<point x="196" y="464" type="curve"/>
			<point x="278" y="459"/>
			<point x="324" y="324"/>
			<point x="500" y="324" type="curve"/>
			<point x="500" y="473" type="line"/>
			<point x="485" y="470"/>
			<point x="470" y="468"/>
			<point x="455" y="468" type="curve" smooth="yes"/>
			<point x="333" y="468"/>
			<point x="303" y="575"/>
			<point x="221" y="575" type="curve" smooth="yes"/>
			<point x="218" y="575"/>
			<point x="208" y="574"/>
			<point x="201" y="573" type="curve"/>
			<point x="201" y="577" type="line"/>
			<point x="265" y="602"/>
			<point x="328" y="609"/>
			<point x="373" y="609" type="curve" smooth="yes"/>
			<point x="426" y="609"/>
			<point x="470" y="599"/>
			<point x="510" y="582" type="curve"/>
			<point x="510" y="700" type="line"/>
			<point x="135" y="700" type="line"/>
			<point x="70" y="540"/>
			<point x="45" y="384"/>
		</contour>
	</outline>
</glyph>
<glyph name="G" format="2">
	<advance width="602"/>
	<unicode hex="0047"/>
	<anchor x="331" y="700" name="top"/>
	<anchor x="301" y="0" name="bottom"/>
	<outline>
		<contour>
			<point x="236" y="540" type="line"/>
			<point x="271" y="490"/>
			<point x="347" y="463"/>
			<point x="424" y="463" type="curve" smooth="yes"/>
			<point x="475" y="463"/>
			<point x="527" y="475"/>
			<point x="567" y="499" type="curve"/>
			<point x="522" y="630" type="line"/>
			<point x="486" y="608"/>
			<point x="459" y="595"/>
			<point x="401" y="595" type="curve" smooth="yes"/>
			<point x="325" y="595"/>
			<point x="244" y="633"/>
			<point x="244" y="700" type="curve"/>
			<point x="182" y="700" type="line"/>
			<point x="181" y="529" type="line"/>
		</contour>
		<contour>
			<point x="35" y="216" type="curve" smooth="yes"/>
			<point x="35" y="99"/>
			<point x="144" y="-20"/>
			<point x="296" y="-20" type="curve" smooth="yes"/>
			<point x="449" y="-20"/>
			<point x="551" y="85"/>
			<point x="551" y="248" type="curve" smooth="yes"/>
			<point x="551" y="286"/>
			<point x="546" y="346"/>
			<point x="538" y="388" type="curve"/>
			<point x="474" y="373"/>
			<point x="431" y="366"/>
			<point x="378" y="366" type="curve" smooth="yes"/>
			<point x="335" y="366"/>
			<point x="294" y="371"/>
			<point x="261" y="379" type="curve"/>
			<point x="280" y="238" type="line"/>
			<point x="339" y="263"/>
			<point x="395" y="268"/>
			<point x="471" y="268" type="curve"/>
			<point x="417" y="278" type="line"/>
			<point x="450" y="198"/>
			<point x="400" y="119"/>
			<point x="316" y="119" type="curve" smooth="yes"/>
			<point x="234" y="119"/>
			<point x="177" y="178"/>
			<point x="177" y="246" type="curve" smooth="yes"/>
			<point x="177" y="309"/>
			<point x="232" y="458"/>
			<point x="232" y="539" type="curve"/>
			<point x="244" y="700" type="line"/>
			<point x="139" y="700" type="line"/>
			<point x="139" y="500"/>
			<point x="35" y="343"/>
		</contour>
	</outline>
</glyph>
<glyph name="H" format="2">
	<advance width="671"/>
	<unicode hex="0048"/>
	<anchor x="336" y="350" name="center"/>
	<anchor x="336" y="700" name="top"/>
	<anchor x="10" y="700" name="topleft"/>
	<anchor x="336" y="0" name="bottom"/>
	<outline>
		<contour>
			<point x="70" y="0" type="curve"/>
			<point x="242" y="0" type="line"/>
			<point x="203" y="91"/>
			<point x="198" y="198"/>
			<point x="198" y="304" type="curve" smooth="yes"/>
			<point x="198" y="451"/>
			<point x="207" y="597"/>
			<point x="243" y="700" type="curve"/>
			<point x="135" y="700" type="line"/>
			<point x="70" y="540"/>
			<point x="45" y="384"/>
			<point x="45" y="216" type="curve" smooth="yes"/>
			<point x="45" y="142"/>
			<point x="53" y="69"/>
		</contour>
		<contour>
			<point x="429" y="0" type="curve"/>
			<point x="601" y="0" type="line"/>
			<point x="618" y="69"/>
			<point x="626" y="142"/>
			<point x="626" y="216" type="curve" smooth="yes"/>
			<point x="626" y="384"/>
			<point x="601" y="540"/>
			<point x="536" y="700" type="curve"/>
			<point x="428" y="700" type="line"/>
			<point x="464" y="597"/>
			<point x="473" y="451"/>
			<point x="473" y="304" type="curve" smooth="yes"/>
			<point x="473" y="198"/>
			<point x="468" y="91"/>
		</contour>
		<contour>
			<point x="142" y="416" type="curve"/>
			<point x="122" y="325" type="line"/>
			<point x="142" y="233" type="line"/>
			<point x="142" y="249"/>
			<point x="243" y="256"/>
			<point x="337" y="256" type="curve" smooth="yes"/>
			<point x="430" y="256"/>
			<point x="535" y="249"/>
			<point x="535" y="233" type="curve"/>
			<point x="545" y="332" type="line"/>
			<point x="535" y="416" type="line"/>
			<point x="535" y="368"/>
			<point x="416" y="362"/>
			<point x="337" y="362" type="curve" smooth="yes"/>
			<point x="271" y="362"/>
			<point x="142" y="368"/>
		</contour>
	</outline>
</glyph>
<glyph name="J" format="2">
	<advance width="591"/>
	<unicode hex="004A"/>
	<guideline x="195" y="595" angle="0"/>
	<anchor x="305" y="700" name="top"/>
	<anchor x="305" y="0" name="bottom"/>
	<outline>
		<contour>
			<point x="561" y="216" type="curve" smooth="yes"/>
			<point x="561" y="306"/>
			<point x="508" y="412"/>
			<point x="478" y="537" type="curve" smooth="yes"/>
			<point x="471" y="566"/>
			<point x="473" y="586"/>
			<point x="487" y="586" type="curve"/>
			<point x="477" y="700" type="line"/>
			<point x="352" y="700" type="line"/>
			<point x="352" y="581" type="line"/>
			<point x="337" y="567"/>
			<point x="339" y="548"/>
			<point x="347" y="518" type="curve" smooth="yes"/>
			<point x="370" y="423"/>
			<point x="419" y="294"/>
			<point x="419" y="246" type="curve" smooth="yes"/>
			<point x="419" y="171"/>
			<point x="373" y="119"/>
			<point x="305" y="119" type="curve" smooth="yes"/>
			<point x="276" y="119"/>
			<point x="243" y="132"/>
			<point x="224" y="163" type="curve" smooth="yes"/>
			<point x="204" y="196"/>
			<point x="203" y="222"/>
			<point x="202" y="250" type="curve" smooth="yes"/>
			<point x="201" y="274"/>
			<point x="200" y="300"/>
			<point x="187" y="337" type="curve"/>
			<point x="25" y="358" type="line"/>
			<point x="44" y="320"/>
			<point x="49" y="279"/>
			<point x="49" y="233" type="curve" smooth="yes"/>
			<point x="49" y="133"/>
			<point x="117" y="-20"/>
			<point x="305" y="-20" type="curve" smooth="yes"/>
			<point x="457" y="-20"/>
			<point x="561" y="99"/>
		</contour>
		<contour>
			<point x="25" y="706" type="curve"/>
			<point x="25" y="556" type="line"/>
			<point x="43" y="545"/>
			<point x="87" y="538"/>
			<point x="127" y="538" type="curve" smooth="yes"/>
			<point x="248" y="538"/>
			<point x="332" y="595"/>
			<point x="424" y="595" type="curve" smooth="yes"/>
			<point x="501" y="595"/>
			<point x="555" y="556"/>
			<point x="576" y="538" type="curve"/>
			<point x="576" y="688" type="line"/>
			<point x="552" y="703"/>
			<point x="490" y="710"/>
			<point x="443" y="710" type="curve" smooth="yes"/>
			<point x="332" y="710"/>
			<point x="221" y="680"/>
			<point x="130" y="680" type="curve" smooth="yes"/>
			<point x="88" y="680"/>
			<point x="57" y="687"/>
		</contour>
	</outline>
</glyph>
<glyph name="K" format="2">
	<advance width="627"/>
	<unicode hex="004B"/>
	<anchor x="319" y="700" name="top"/>
	<anchor x="319" y="0" name="bottom"/>
	<outline>
		<contour>
			<point x="70" y="0" type="curve"/>
			<point x="237" y="0" type="line"/>
			<point x="206" y="73"/>
			<point x="190" y="144"/>
			<point x="185" y="234" type="curve" smooth="yes"/>
			<point x="184" y="256"/>
			<point x="183" y="279"/>
			<point x="183" y="304" type="curve" smooth="yes"/>
			<point x="183" y="431"/>
			<point x="202" y="597"/>
			<point x="238" y="700" type="curve"/>
			<point x="179" y="700"/>
			<point x="163" y="700"/>
			<point x="135" y="700" type="curve"/>
			<point x="80" y="540"/>
			<point x="45" y="384"/>
			<point x="45" y="216" type="curve" smooth="yes"/>
			<point x="45" y="142"/>
			<point x="53" y="69"/>
		</contour>
		<contour>
			<point x="519" y="700" type="curve"/>
			<point x="354" y="700" type="line"/>
			<point x="399" y="649"/>
			<point x="420" y="601"/>
			<point x="420" y="547" type="curve" smooth="yes"/>
			<point x="420" y="440"/>
			<point x="294" y="375"/>
			<point x="111" y="379" type="curve"/>
			<point x="185" y="234" type="line"/>
			<point x="185" y="261"/>
			<point x="204" y="269"/>
			<point x="246" y="277" type="curve" smooth="yes"/>
			<point x="326" y="293"/>
			<point x="394" y="320"/>
			<point x="447" y="356" type="curve" smooth="yes"/>
			<point x="521" y="407"/>
			<point x="564" y="473"/>
			<point x="564" y="545" type="curve" smooth="yes"/>
			<point x="564" y="608"/>
			<point x="550" y="653"/>
		</contour>
		<contour>
			<point x="341" y="404" type="line"/>
			<point x="341" y="303" type="line"/>
			<point x="344" y="300" type="line"/>
			<point x="342" y="297"/>
			<point x="342" y="294"/>
			<point x="342" y="290" type="curve" smooth="yes"/>
			<point x="342" y="222"/>
			<point x="448" y="191"/>
			<point x="448" y="129" type="curve" smooth="yes"/>
			<point x="448" y="89"/>
			<point x="426" y="42"/>
			<point x="401" y="0" type="curve"/>
			<point x="554" y="0" type="line"/>
			<point x="578" y="35"/>
			<point x="592" y="74"/>
			<point x="592" y="112" type="curve" smooth="yes"/>
			<point x="592" y="186"/>
			<point x="547" y="241"/>
			<point x="471" y="295" type="curve" smooth="yes"/>
			<point x="443" y="315"/>
			<point x="436" y="347"/>
			<point x="447" y="356" type="curve"/>
			<point x="443" y="404" type="line"/>
		</contour>
	</outline>
</glyph>
<glyph name="L" format="2">
	<advance width="536"/>
	<unicode hex="004C"/>
	<anchor x="296" y="350" name="center"/>
	<anchor x="296" y="700" name="top"/>
	<anchor x="511" y="700" name="topright"/>
	<anchor x="296" y="0" name="bottom"/>
	<outline>
		<contour>
			<point x="462" y="153" type="line"/>
			<point x="318" y="111"/>
			<point x="195" y="101"/>
			<point x="70" y="101" type="curve"/>
			<point x="70" y="0" type="line"/>
			<point x="511" y="0" type="line"/>
		</contour>
		<contour>
			<point x="70" y="0" type="curve"/>
			<point x="242" y="0" type="line"/>
			<point x="203" y="91"/>
			<point x="188" y="198"/>
			<point x="188" y="304" type="curve" smooth="yes"/>
			<point x="188" y="451"/>
			<point x="207" y="597"/>
			<point x="243" y="700" type="curve"/>
			<point x="135" y="700" type="line"/>
			<point x="70" y="540"/>
			<point x="45" y="384"/>
			<point x="45" y="216" type="curve" smooth="yes"/>
			<point x="45" y="142"/>
			<point x="53" y="69"/>
		</contour>
	</outline>
</glyph>
<glyph name="M" format="2">
	<advance width="916"/>
	<unicode hex="004D"/>
	<anchor x="458" y="700" name="top"/>
	<anchor x="458" y="0" name="bottom"/>
	<outline>
		<contour>
			<point x="35" y="136" type="curve" smooth="yes"/>
			<point x="35" y="97"/>
			<point x="49" y="52"/>
			<point x="84" y="0" type="curve"/>
			<point x="265" y="0" type="line"/>
			<point x="219" y="36"/>
			<point x="199" y="87"/>
			<point x="199" y="125" type="curve" smooth="yes"/>
			<point x="199" y="186"/>
			<point x="229" y="203"/>
			<point x="244" y="278" type="curve"/>
			<point x="248" y="278" type="line"/>
			<point x="298" y="176"/>
			<point x="394" y="74"/>
			<point x="394" y="0" type="curve"/>
			<point x="522" y="0" type="line"/>
			<point x="522" y="74"/>
			<point x="618" y="176"/>
			<point x="668" y="278" type="curve"/>
			<point x="672" y="278" type="line"/>
			<point x="687" y="203"/>
			<point x="717" y="186"/>
			<point x="717" y="125" type="curve" smooth="yes"/>
			<point x="717" y="87"/>
			<point x="697" y="36"/>
			<point x="651" y="0" type="curve"/>
			<point x="832" y="0" type="line"/>
			<point x="867" y="52"/>
			<point x="881" y="97"/>
			<point x="881" y="136" type="curve" smooth="yes"/>
			<point x="881" y="242"/>
			<point x="720" y="345"/>
			<point x="724" y="394" type="curve" smooth="yes"/>
			<point x="725" y="407"/>
			<point x="725" y="419"/>
			<point x="725" y="431" type="curve" smooth="yes"/>
			<point x="725" y="503"/>
			<point x="711" y="578"/>
			<point x="657" y="700" type="curve"/>
			<point x="501" y="700" type="line"/>
			<point x="549" y="598"/>
			<point x="567" y="507"/>
			<point x="567" y="425" type="curve" smooth="yes"/>
			<point x="567" y="301"/>
			<point x="493" y="207"/>
			<point x="463" y="124" type="curve"/>
			<point x="457" y="124" type="line"/>
			<point x="428" y="207"/>
			<point x="354" y="301"/>
			<point x="354" y="425" type="curve" smooth="yes"/>
			<point x="354" y="507"/>
			<point x="372" y="598"/>
			<point x="420" y="700" type="curve"/>
			<point x="259" y="700" type="line"/>
			<point x="205" y="578"/>
			<point x="191" y="503"/>
			<point x="191" y="431" type="curve" smooth="yes"/>
			<point x="191" y="419"/>
			<point x="191" y="407"/>
			<point x="192" y="394" type="curve" smooth="yes"/>
			<point x="195" y="345"/>
			<point x="35" y="242"/>
		</contour>
	</outline>
</glyph>
<glyph name="N" format="2">
	<advance width="682"/>
	<unicode hex="004E"/>
	<anchor x="359" y="700" name="top"/>
	<anchor x="329" y="0" name="bottom"/>
	<outline>
		<contour>
			<point x="45" y="216" type="curve" smooth="yes"/>
			<point x="45" y="142"/>
			<point x="53" y="69"/>
			<point x="70" y="0" type="curve"/>
			<point x="232" y="0" type="line"/>
			<point x="221" y="28"/>
			<point x="219" y="41"/>
			<point x="219" y="68" type="curve" smooth="yes"/>
			<point x="219" y="145"/>
			<point x="302" y="213"/>
			<point x="366" y="280" type="curve" smooth="yes"/>
			<point x="435" y="352"/>
			<point x="510" y="438"/>
			<point x="510" y="534" type="curve"/>
			<point x="514" y="534" type="line"/>
			<point x="523" y="511"/>
			<point x="526" y="487"/>
			<point x="526" y="462" type="curve" smooth="yes"/>
			<point x="526" y="389"/>
			<point x="493" y="309"/>
			<point x="458" y="224" type="curve" smooth="yes"/>
			<point x="440" y="180"/>
			<point x="429" y="138"/>
			<point x="429" y="98" type="curve" smooth="yes"/>
			<point x="429" y="64"/>
			<point x="437" y="31"/>
			<point x="456" y="-1" type="curve"/>
			<point x="623" y="-1" type="line"/>
			<point x="597" y="32"/>
			<point x="574" y="54"/>
			<point x="574" y="127" type="curve" smooth="yes"/>
			<point x="574" y="220"/>
			<point x="637" y="291"/>
			<point x="637" y="441" type="curve" smooth="yes"/>
			<point x="637" y="539"/>
			<point x="606" y="632"/>
			<point x="555" y="700" type="curve"/>
			<point x="419" y="700" type="line"/>
			<point x="427" y="677"/>
			<point x="429" y="655"/>
			<point x="429" y="640" type="curve" smooth="yes"/>
			<point x="429" y="574"/>
			<point x="410" y="500"/>
			<point x="269" y="361" type="curve" smooth="yes"/>
			<point x="230" y="322"/>
			<point x="197" y="287"/>
			<point x="192" y="258" type="curve"/>
			<point x="188" y="258" type="line"/>
			<point x="188" y="294" type="line"/>
			<point x="188" y="441"/>
			<point x="207" y="597"/>
			<point x="243" y="700" type="curve"/>
			<point x="135" y="700" type="line"/>
			<point x="80" y="540"/>
			<point x="45" y="384"/>
		</contour>
	</outline>
</glyph>
<glyph name="O" format="2">
	<advance width="813"/>
	<unicode hex="004F"/>
	<anchor x="407" y="350" name="center"/>
	<anchor x="454" y="10" name="ogonek"/>
	<anchor x="407" y="700" name="top"/>
	<anchor x="813" y="700" name="topright"/>
	<anchor x="0" y="700" name="topleft"/>
	<anchor x="407" y="0" name="bottom"/>
	<outline>
		<contour>
			<point x="25" y="335" type="curve" smooth="yes"/>
			<point x="25" y="148"/>
			<point x="322" y="77"/>
			<point x="322" y="0" type="curve"/>
			<point x="491" y="0" type="line"/>
			<point x="491" y="77"/>
			<point x="788" y="148"/>
			<point x="788" y="335" type="curve" smooth="yes"/>
			<point x="788" y="557"/>
			<point x="460" y="609"/>
			<point x="460" y="700" type="curve"/>
			<point x="353" y="700" type="line"/>
			<point x="353" y="609"/>
			<point x="25" y="557"/>
		</contour>
		<contour>
			<point x="202" y="335" type="curve" smooth="yes"/>
			<point x="202" y="480"/>
			<point x="366" y="513"/>
			<point x="404" y="609" type="curve"/>
			<point x="409" y="609" type="line"/>
			<point x="448" y="513"/>
			<point x="611" y="482"/>
			<point x="611" y="335" type="curve" smooth="yes"/>
			<point x="611" y="222"/>
			<point x="444" y="148"/>
			<point x="410" y="79" type="curve"/>
			<point x="405" y="79" type="line"/>
			<point x="369" y="148"/>
			<point x="202" y="222"/>
		</contour>
		<component base="_part.pupil" xOffset="34" yOffset="50"/>
	</outline>
</glyph>
<glyph name="P" format="2">
	<advance width="561"/>
	<unicode hex="0050"/>
	<anchor x="275" y="700" name="top"/>
	<anchor x="275" y="0" name="bottom"/>
	<outline>
		<contour>
			<point x="70" y="0" type="curve"/>
			<point x="242" y="0" type="line"/>
			<point x="227" y="35"/>
			<point x="215" y="73"/>
			<point x="207" y="112" type="curve" smooth="yes"/>
			<point x="194" y="174"/>
			<point x="188" y="239"/>
			<point x="188" y="304" type="curve" smooth="yes"/>
			<point x="188" y="451"/>
			<point x="207" y="597"/>
			<point x="243" y="700" type="curve"/>
			<point x="135" y="700" type="line"/>
			<point x="80" y="540"/>
			<point x="45" y="384"/>
			<point x="45" y="216" type="curve" smooth="yes"/>
			<point x="45" y="142"/>
			<point x="53" y="69"/>
		</contour>
		<contour>
			<point x="207" y="112" type="line"/>
			<point x="207" y="120"/>
			<point x="202" y="151"/>
			<point x="243" y="177" type="curve" smooth="yes"/>
			<point x="415" y="285"/>
			<point x="536" y="400"/>
			<point x="536" y="526" type="curve" smooth="yes"/>
			<point x="536" y="622"/>
			<point x="481" y="700"/>
			<point x="273" y="700" type="curve"/>
			<point x="169" y="700" type="line"/>
			<point x="169" y="605" type="line"/>
			<point x="276" y="605"/>
			<point x="387" y="609"/>
			<point x="387" y="521" type="curve" smooth="yes"/>
			<point x="387" y="455"/>
			<point x="318" y="389"/>
			<point x="234" y="323" type="curve" smooth="yes"/>
			<point x="206" y="301"/>
			<point x="192" y="290"/>
			<point x="192" y="274" type="curve"/>
			<point x="138" y="274" type="line"/>
			<point x="140" y="112" type="line"/>
		</contour>
	</outline>
</glyph>
<glyph name="Q" format="2">
	<advance width="853"/>
	<unicode hex="0051"/>
	<anchor x="427" y="700" name="top"/>
	<anchor x="427" y="0" name="bottom"/>
	<outline>
		<contour>
			<point x="587" y="162" type="curve"/>
			<point x="633" y="160"/>
			<point x="661" y="118"/>
			<point x="661" y="72" type="curve" smooth="yes"/>
			<point x="661" y="47"/>
			<point x="653" y="21"/>
			<point x="635" y="0" type="curve"/>
			<point x="790" y="0" type="line"/>
			<point x="790" y="98"/>
			<point x="709" y="182"/>
			<point x="662" y="199" type="curve"/>
			<point x="635" y="186"/>
			<point x="612" y="174"/>
		</contour>
		<contour>
			<point x="426" y="286" type="curve" smooth="yes"/>
			<point x="454" y="286"/>
			<point x="479" y="309"/>
			<point x="479" y="339" type="curve" smooth="yes"/>
			<point x="479" y="368"/>
			<point x="454" y="391"/>
			<point x="426" y="391" type="curve" smooth="yes"/>
			<point x="397" y="391"/>
			<point x="374" y="368"/>
			<point x="374" y="339" type="curve" smooth="yes"/>
			<point x="374" y="309"/>
			<point x="397" y="286"/>
		</contour>
		<contour>
			<point x="25" y="335" type="curve" smooth="yes"/>
			<point x="25" y="148"/>
			<point x="342" y="77"/>
			<point x="342" y="0" type="curve"/>
			<point x="511" y="0" type="line"/>
			<point x="511" y="77"/>
			<point x="828" y="148"/>
			<point x="828" y="335" type="curve" smooth="yes"/>
			<point x="828" y="557"/>
			<point x="480" y="609"/>
			<point x="480" y="700" type="curve"/>
			<point x="373" y="700" type="line"/>
			<point x="373" y="609"/>
			<point x="25" y="557"/>
		</contour>
		<contour>
			<point x="202" y="335" type="curve" smooth="yes"/>
			<point x="202" y="480"/>
			<point x="386" y="513"/>
			<point x="424" y="609" type="curve"/>
			<point x="429" y="609" type="line"/>
			<point x="468" y="513"/>
			<point x="651" y="482"/>
			<point x="651" y="335" type="curve" smooth="yes"/>
			<point x="651" y="222"/>
			<point x="464" y="148"/>
			<point x="430" y="79" type="curve"/>
			<point x="425" y="79" type="line"/>
			<point x="389" y="148"/>
			<point x="202" y="222"/>
		</contour>
	</outline>
</glyph>
<glyph name="R" format="2">
	<advance width="637"/>
	<unicode hex="0052"/>
	<anchor x="288" y="700" name="top"/>
	<anchor x="328" y="0" name="bottom"/>
	<outline>
		<contour>
			<point x="207" y="542" type="curve"/>
			<point x="89" y="541" type="line"/>
			<point x="89" y="474"/>
			<point x="107" y="367"/>
			<point x="139" y="336" type="curve"/>
			<point x="193" y="350" type="line"/>
			<point x="260" y="243"/>
			<point x="472" y="278"/>
			<point x="472" y="134" type="curve" smooth="yes"/>
			<point x="472" y="96"/>
			<point x="456" y="52"/>
			<point x="429" y="0" type="curve"/>
			<point x="569" y="0" type="line"/>
			<point x="600" y="74"/>
			<point x="612" y="131"/>
			<point x="612" y="177" type="curve" smooth="yes"/>
			<point x="612" y="270"/>
			<point x="549" y="319"/>
			<point x="399" y="371" type="curve" smooth="yes"/>
			<point x="351" y="388"/>
			<point x="294" y="415"/>
			<point x="260" y="438" type="curve" smooth="yes"/>
			<point x="228" y="460"/>
			<point x="207" y="486"/>
		</contour>
		<contour>
			<point x="70" y="0" type="curve"/>
			<point x="242" y="0" type="line"/>
			<point x="203" y="91"/>
			<point x="188" y="198"/>
			<point x="188" y="304" type="curve" smooth="yes"/>
			<point x="188" y="451"/>
			<point x="207" y="597"/>
			<point x="243" y="700" type="curve"/>
			<point x="135" y="700" type="line"/>
			<point x="80" y="540"/>
			<point x="45" y="384"/>
			<point x="45" y="216" type="curve" smooth="yes"/>
			<point x="45" y="142"/>
			<point x="53" y="69"/>
		</contour>
		<contour>
			<point x="414" y="370" type="line"/>
			<point x="496" y="370"/>
			<point x="559" y="455"/>
			<point x="559" y="543" type="curve" smooth="yes"/>
			<point x="559" y="625"/>
			<point x="490" y="700"/>
			<point x="243" y="700" type="curve"/>
			<point x="135" y="700" type="line"/>
			<point x="135" y="542" type="line"/>
			<point x="207" y="542" type="line"/>
			<point x="207" y="567"/>
			<point x="230" y="612"/>
			<point x="253" y="629" type="curve"/>
			<point x="179" y="581" type="line"/>
			<point x="210" y="595"/>
			<point x="244" y="604"/>
			<point x="307" y="604" type="curve" smooth="yes"/>
			<point x="391" y="604"/>
			<point x="427" y="562"/>
			<point x="427" y="514" type="curve" smooth="yes"/>
			<point x="427" y="460"/>
			<point x="357" y="391"/>
			<point x="260" y="438" type="curve"/>
			<point x="260" y="351" type="line"/>
			<point x="414" y="341" type="line"/>
		</contour>
	</outline>
</glyph>
<glyph name="S" format="2">
	<advance width="575"/>
	<unicode hex="0053"/>
	<anchor x="288" y="700" name="top"/>
	<anchor x="271" y="0" name="bottom"/>
	<outline>
		<contour>
			<point x="413" y="583" type="curve"/>
			<point x="464" y="688" type="line"/>
			<point x="425" y="716"/>
			<point x="356" y="730"/>
			<point x="293" y="730" type="curve" smooth="yes"/>
			<point x="175" y="730"/>
			<point x="71" y="687"/>
			<point x="71" y="576" type="curve" smooth="yes"/>
			<point x="71" y="481"/>
			<point x="144" y="410"/>
			<point x="258" y="338" type="curve" smooth="yes"/>
			<point x="332" y="291"/>
			<point x="392" y="230"/>
			<point x="392" y="184" type="curve" smooth="yes"/>
			<point x="392" y="147"/>
			<point x="366" y="117"/>
			<point x="318" y="117" type="curve" smooth="yes"/>
			<point x="243" y="117"/>
			<point x="163" y="142"/>
			<point x="90" y="172" type="curve"/>
			<point x="30" y="29" type="line"/>
			<point x="91" y="0"/>
			<point x="188" y="-20"/>
			<point x="271" y="-20" type="curve" smooth="yes"/>
			<point x="415" y="-20"/>
			<point x="545" y="33"/>
			<point x="545" y="174" type="curve" smooth="yes"/>
			<point x="545" y="285"/>
			<point x="421" y="378"/>
			<point x="332" y="440" type="curve" smooth="yes"/>
			<point x="258" y="492"/>
			<point x="220" y="525"/>
			<point x="220" y="567" type="curve" smooth="yes"/>
			<point x="220" y="596"/>
			<point x="250" y="621"/>
			<point x="297" y="621" type="curve" smooth="yes"/>
			<point x="334" y="621"/>
			<point x="378" y="609"/>
		</contour>
	</outline>
</glyph>
<glyph name="T" format="2">
	<advance width="606"/>
	<unicode hex="0054"/>
	<anchor x="313" y="250" name="center"/>
	<anchor x="278" y="700" name="top"/>
	<anchor x="603" y="500" name="topright"/>
	<anchor x="233" y="0" name="bottom"/>
	<outline>
		<contour>
			<point x="25" y="706" type="curve"/>
			<point x="25" y="556" type="line"/>
			<point x="43" y="545"/>
			<point x="87" y="538"/>
			<point x="127" y="538" type="curve" smooth="yes"/>
			<point x="190" y="538"/>
			<point x="263" y="549"/>
			<point x="323" y="569" type="curve" smooth="yes"/>
			<point x="362" y="582"/>
			<point x="397" y="598"/>
			<point x="429" y="598" type="curve" smooth="yes"/>
			<point x="506" y="598"/>
			<point x="560" y="556"/>
			<point x="581" y="538" type="curve"/>
			<point x="581" y="688" type="line"/>
			<point x="557" y="703"/>
			<point x="495" y="710"/>
			<point x="448" y="710" type="curve" smooth="yes"/>
			<point x="337" y="710"/>
			<point x="221" y="680"/>
			<point x="130" y="680" type="curve" smooth="yes"/>
			<point x="88" y="680"/>
			<point x="57" y="687"/>
		</contour>
		<contour>
			<point x="143" y="1" type="curve"/>
			<point x="322" y="1" type="line"/>
			<point x="362" y="54"/>
			<point x="386" y="109"/>
			<point x="386" y="183" type="curve" smooth="yes"/>
			<point x="386" y="287"/>
			<point x="319" y="377"/>
			<point x="319" y="451" type="curve" smooth="yes"/>
			<point x="319" y="510"/>
			<point x="355" y="585"/>
			<point x="448" y="585" type="curve" smooth="yes"/>
			<point x="488" y="585"/>
			<point x="529" y="571"/>
			<point x="581" y="538" type="curve"/>
			<point x="570" y="670" type="line"/>
			<point x="320" y="640" type="line"/>
			<point x="178" y="571" type="line"/>
			<point x="207" y="539" type="line"/>
			<point x="194" y="509"/>
			<point x="189" y="484"/>
			<point x="189" y="462" type="curve" smooth="yes"/>
			<point x="189" y="371"/>
			<point x="238" y="321"/>
			<point x="238" y="227" type="curve" smooth="yes"/>
			<point x="238" y="132"/>
			<point x="199" y="69"/>
		</contour>
	</outline>
</glyph>
<glyph name="V" format="2">
	<advance width="611"/>
	<unicode hex="0056"/>
	<anchor x="306" y="700" name="top"/>
	<anchor x="306" y="0" name="bottom"/>
	<outline>
		<contour>
			<point x="40" y="428" type="curve" smooth="yes"/>
			<point x="40" y="285"/>
			<point x="103" y="168"/>
			<point x="249" y="0" type="curve"/>
			<point x="362" y="0" type="line"/>
			<point x="412" y="143"/>
			<point x="571" y="285"/>
			<point x="571" y="430" type="curve" smooth="yes"/>
			<point x="571" y="507"/>
			<point x="554" y="593"/>
			<point x="507" y="700" type="curve"/>
			<point x="351" y="700" type="line"/>
			<point x="399" y="598"/>
			<point x="417" y="507"/>
			<point x="417" y="425" type="curve" smooth="yes"/>
			<point x="417" y="293"/>
			<point x="338" y="194"/>
			<point x="289" y="108" type="curve"/>
			<point x="283" y="108" type="line"/>
			<point x="232" y="192"/>
			<point x="194" y="293"/>
			<point x="194" y="428" type="curve" smooth="yes"/>
			<point x="194" y="507"/>
			<point x="212" y="598"/>
			<point x="260" y="700" type="curve"/>
			<point x="104" y="700" type="line"/>
			<point x="57" y="593"/>
			<point x="40" y="507"/>
		</contour>
	</outline>
</glyph>
<glyph name="W" format="2">
	<advance width="867"/>
	<unicode hex="0057"/>
	<anchor x="435" y="700" name="top"/>
	<anchor x="435" y="0" name="bottom"/>
	<outline>
		<contour>
			<point x="484" y="288" type="curve"/>
			<point x="393" y="172" type="line"/>
			<point x="426" y="119"/>
			<point x="455" y="63"/>
			<point x="510" y="0" type="curve"/>
			<point x="623" y="0" type="line"/>
			<point x="653" y="113"/>
			<point x="832" y="285"/>
			<point x="832" y="430" type="curve" smooth="yes"/>
			<point x="832" y="507"/>
			<point x="815" y="593"/>
			<point x="768" y="700" type="curve"/>
			<point x="612" y="700" type="line"/>
			<point x="660" y="598"/>
			<point x="678" y="507"/>
			<point x="678" y="425" type="curve" smooth="yes"/>
			<point x="678" y="293"/>
			<point x="599" y="194"/>
			<point x="550" y="108" type="curve"/>
			<point x="544" y="108" type="line"/>
			<point x="513" y="160"/>
			<point x="500" y="220"/>
		</contour>
		<contour>
			<point x="35" y="428" type="curve" smooth="yes"/>
			<point x="35" y="285"/>
			<point x="98" y="168"/>
			<point x="244" y="0" type="curve"/>
			<point x="357" y="0" type="line"/>
			<point x="407" y="143"/>
			<point x="566" y="285"/>
			<point x="566" y="430" type="curve" smooth="yes"/>
			<point x="566" y="507"/>
			<point x="549" y="593"/>
			<point x="502" y="700" type="curve"/>
			<point x="346" y="700" type="line"/>
			<point x="394" y="598"/>
			<point x="412" y="507"/>
			<point x="412" y="425" type="curve" smooth="yes"/>
			<point x="412" y="293"/>
			<point x="333" y="194"/>
			<point x="284" y="108" type="curve"/>
			<point x="278" y="108" type="line"/>
			<point x="227" y="192"/>
			<point x="189" y="298"/>
			<point x="189" y="428" type="curve" smooth="yes"/>
			<point x="189" y="507"/>
			<point x="207" y="598"/>
			<point x="255" y="700" type="curve"/>
			<point x="99" y="700" type="line"/>
			<point x="52" y="593"/>
			<point x="35" y="507"/>
		</contour>
	</outline>
</glyph>
<glyph name="X" format="2">
	<advance width="693"/>
	<unicode hex="0058"/>
	<anchor x="347" y="700" name="top"/>
	<anchor x="347" y="0" name="bottom"/>
	<outline>
		<contour>
			<point x="293" y="700" type="curve"/>
			<point x="171" y="700" type="line"/>
			<point x="140" y="667"/>
			<point x="111" y="619"/>
			<point x="111" y="564" type="curve" smooth="yes"/>
			<point x="111" y="497"/>
			<point x="153" y="421"/>
			<point x="287" y="350" type="curve" smooth="yes"/>
			<point x="439" y="270"/>
			<point x="488" y="217"/>
			<point x="488" y="149" type="curve" smooth="yes"/>
			<point x="488" y="109"/>
			<point x="476" y="65"/>
			<point x="441" y="0" type="curve"/>
			<point x="624" y="0" type="line"/>
			<point x="646" y="42"/>
			<point x="658" y="84"/>
			<point x="658" y="127" type="curve" smooth="yes"/>
			<point x="658" y="265"/>
			<point x="582" y="331"/>
			<point x="398" y="423" type="curve" smooth="yes"/>
			<point x="272" y="486"/>
			<point x="247" y="544"/>
			<point x="247" y="591" type="curve" smooth="yes"/>
			<point x="247" y="644"/>
			<point x="281" y="684"/>
		</contour>
		<contour>
			<point x="374" y="347" type="curve"/>
			<point x="303" y="427" type="line"/>
			<point x="128" y="338"/>
			<point x="35" y="262"/>
			<point x="35" y="127" type="curve" smooth="yes"/>
			<point x="35" y="84"/>
			<point x="57" y="42"/>
			<point x="79" y="0" type="curve"/>
			<point x="252" y="0" type="line"/>
			<point x="217" y="65"/>
			<point x="205" y="109"/>
			<point x="205" y="149" type="curve" smooth="yes"/>
			<point x="205" y="210"/>
			<point x="253" y="279"/>
		</contour>
		<contour>
			<point x="305" y="413" type="curve"/>
			<point x="396" y="350" type="line"/>
			<point x="530" y="421"/>
			<point x="572" y="497"/>
			<point x="572" y="564" type="curve" smooth="yes"/>
			<point x="572" y="619"/>
			<point x="543" y="667"/>
			<point x="512" y="700" type="curve"/>
			<point x="400" y="700" type="line"/>
			<point x="412" y="684"/>
			<point x="446" y="634"/>
			<point x="446" y="581" type="curve" smooth="yes"/>
			<point x="446" y="534"/>
			<point x="431" y="476"/>
		</contour>
	</outline>
</glyph>
<glyph name="Y" format="2">
	<advance width="698"/>
	<unicode hex="0059"/>
	<anchor x="355" y="700" name="top"/>
	<anchor x="347" y="0" name="bottom"/>
	<anchor x="28" y="700" name="topleft"/>
	<outline>
		<contour>
			<point x="35" y="519" type="curve" smooth="yes"/>
			<point x="35" y="418"/>
			<point x="145" y="381"/>
			<point x="226" y="321" type="curve" smooth="yes"/>
			<point x="293" y="271"/>
			<point x="303" y="221"/>
			<point x="303" y="159" type="curve" smooth="yes"/>
			<point x="303" y="95"/>
			<point x="286" y="41"/>
			<point x="253" y="0" type="curve"/>
			<point x="413" y="0" type="line"/>
			<point x="450" y="40"/>
			<point x="460" y="96"/>
			<point x="460" y="143" type="curve" smooth="yes"/>
			<point x="460" y="205"/>
			<point x="439" y="237"/>
			<point x="439" y="265" type="curve" smooth="yes"/>
			<point x="439" y="296"/>
			<point x="468" y="323"/>
			<point x="511" y="342" type="curve" smooth="yes"/>
			<point x="577" y="371"/>
			<point x="675" y="415"/>
			<point x="675" y="519" type="curve" smooth="yes"/>
			<point x="675" y="571"/>
			<point x="656" y="648"/>
			<point x="605" y="700" type="curve"/>
			<point x="440" y="700" type="line"/>
			<point x="473" y="663"/>
			<point x="505" y="606"/>
			<point x="505" y="558" type="curve" smooth="yes"/>
			<point x="505" y="454"/>
			<point x="366" y="423"/>
			<point x="366" y="359" type="curve"/>
			<point x="361" y="356" type="line"/>
			<point x="344" y="375"/>
			<point x="319" y="394"/>
			<point x="305" y="403" type="curve" smooth="yes"/>
			<point x="217" y="463"/>
			<point x="206" y="517"/>
			<point x="206" y="566" type="curve" smooth="yes"/>
			<point x="206" y="615"/>
			<point x="236" y="659"/>
			<point x="273" y="701" type="curve"/>
			<point x="124" y="701" type="line"/>
			<point x="62" y="648"/>
			<point x="35" y="561"/>
		</contour>
	</outline>
</glyph>
<glyph name="Z" format="2">
	<advance width="685"/>
	<unicode hex="005A"/>
	<anchor x="343" y="350" name="center"/>
	<anchor x="343" y="0" name="bottom"/>
	<anchor x="343" y="700" name="top"/>
	<outline>
		<contour>
			<point x="585" y="153" type="line"/>
			<point x="441" y="111"/>
			<point x="328" y="101"/>
			<point x="153" y="101" type="curve"/>
			<point x="153" y="0" type="line"/>
			<point x="634" y="0" type="line"/>
		</contour>
		<contour>
			<point x="142" y="547" type="line"/>
			<point x="286" y="589"/>
			<point x="399" y="599"/>
			<point x="574" y="599" type="curve"/>
			<point x="574" y="700" type="line"/>
			<point x="93" y="700" type="line"/>
		</contour>
		<contour>
			<point x="645" y="614" type="curve" smooth="yes"/>
			<point x="645" y="632"/>
			<point x="640" y="681"/>
			<point x="635" y="700" type="curve"/>
			<point x="495" y="700" type="line"/>
			<point x="506" y="664"/>
			<point x="511" y="637"/>
			<point x="511" y="609" type="curve" smooth="yes"/>
			<point x="511" y="487"/>
			<point x="429" y="425"/>
			<point x="344" y="388" type="curve" smooth="yes"/>
			<point x="187" y="320"/>
			<point x="40" y="223"/>
			<point x="40" y="0" type="curve"/>
			<point x="203" y="0" type="line"/>
			<point x="203" y="154"/>
			<point x="282" y="212"/>
			<point x="398" y="271" type="curve" smooth="yes"/>
			<point x="542" y="344"/>
			<point x="645" y="420"/>
		</contour>
		<contour>
			<point x="134" y="430" type="curve"/>
			<point x="134" y="331" type="line"/>
			<point x="145" y="332"/>
			<point x="155" y="332"/>
			<point x="175" y="332" type="curve" smooth="yes"/>
			<point x="329" y="332"/>
			<point x="448" y="240"/>
			<point x="579" y="240" type="curve"/>
			<point x="580" y="345" type="line"/>
			<point x="446" y="345"/>
			<point x="294" y="431"/>
			<point x="160" y="431" type="curve" smooth="yes"/>
			<point x="151" y="431"/>
			<point x="142" y="431"/>
		</contour>
	</outline>
</glyph>
<glyph name="bracketleft" format="2">
	<advance width="391"/>
	<unicode hex="005B"/>
	<outline>
		<contour>
			<point x="147" y="89" type="curve"/>
			<point x="147" y="0" type="line"/>
			<point x="346" y="0" type="line"/>
			<point x="297" y="133" type="line"/>
			<point x="244" y="108"/>
			<point x="196" y="97"/>
		</contour>
		<contour>
			<point x="147" y="700" type="line"/>
			<point x="147" y="607" type="line"/>
			<point x="160" y="609"/>
			<point x="172" y="609"/>
			<point x="183" y="609" type="curve" smooth="yes"/>
			<point x="236" y="609"/>
			<point x="282" y="598"/>
			<point x="319" y="582" type="curve"/>
			<point x="319" y="700" type="line"/>
		</contour>
		<contour>
			<point x="45" y="216" type="curve" smooth="yes"/>
			<point x="45" y="142"/>
			<point x="53" y="69"/>
			<point x="70" y="0" type="curve"/>
			<point x="242" y="0" type="line"/>
			<point x="203" y="91"/>
			<point x="188" y="198"/>
			<point x="188" y="304" type="curve" smooth="yes"/>
			<point x="188" y="451"/>
			<point x="207" y="597"/>
			<point x="243" y="700" type="curve"/>
			<point x="135" y="700" type="line"/>
			<point x="80" y="540"/>
			<point x="45" y="384"/>
		</contour>
	</outline>
</glyph>
<glyph name="b" format="2">
	<advance width="633"/>
	<unicode hex="0062"/>
	<outline>
		<contour>
			<point x="122" y="416" type="curve"/>
			<point x="122" y="262" type="line"/>
			<point x="186" y="218"/>
			<point x="274" y="181"/>
			<point x="360" y="181" type="curve" smooth="yes"/>
			<point x="519" y="181"/>
			<point x="603" y="282"/>
			<point x="603" y="387" type="curve" smooth="yes"/>
			<point x="603" y="480"/>
			<point x="538" y="575"/>
			<point x="398" y="608" type="curve" smooth="yes"/>
			<point x="318" y="627"/>
			<point x="240" y="629"/>
			<point x="240" y="680" type="curve" smooth="yes"/>
			<point x="240" y="686"/>
			<point x="241" y="693"/>
			<point x="243" y="700" type="curve"/>
			<point x="135" y="700" type="line"/>
			<point x="135" y="650"/>
			<point x="155" y="600"/>
			<point x="211" y="558" type="curve" smooth="yes"/>
			<point x="309" y="484"/>
			<point x="473" y="520"/>
			<point x="473" y="402" type="curve" smooth="yes"/>
			<point x="473" y="331"/>
			<point x="415" y="302"/>
			<point x="338" y="302" type="curve" smooth="yes"/>
			<point x="274" y="302"/>
			<point x="152" y="358"/>
		</contour>
		<contour>
			<point x="70" y="0" type="curve"/>
			<point x="242" y="0" type="line"/>
			<point x="203" y="91"/>
			<point x="188" y="198"/>
			<point x="188" y="304" type="curve" smooth="yes"/>
			<point x="188" y="451"/>
			<point x="207" y="597"/>
			<point x="243" y="700" type="curve"/>
			<point x="135" y="700" type="line"/>
			<point x="80" y="540"/>
			<point x="45" y="384"/>
			<point x="45" y="216" type="curve" smooth="yes"/>
			<point x="45" y="142"/>
			<point x="53" y="69"/>
		</contour>
		<contour>
			<point x="508" y="332" type="curve"/>
			<point x="441" y="276" type="line"/>
			<point x="471" y="242"/>
			<point x="484" y="210"/>
			<point x="484" y="184" type="curve" smooth="yes"/>
			<point x="484" y="122"/>
			<point x="414" y="84"/>
			<point x="312" y="84" type="curve" smooth="yes"/>
			<point x="247" y="84"/>
			<point x="175" y="102"/>
			<point x="122" y="136" type="curve"/>
			<point x="71" y="0" type="line"/>
			<point x="145" y="-19"/>
			<point x="230" y="-30"/>
			<point x="360" y="-30" type="curve" smooth="yes"/>
			<point x="515" y="-30"/>
			<point x="608" y="64"/>
			<point x="608" y="166" type="curve" smooth="yes"/>
			<point x="608" y="225"/>
			<point x="582" y="285"/>
		</contour>
		<component base="_part.pupil" xOffset="-56" yOffset="119"/>
	</outline>
</glyph>
<glyph name="e" format="2">
	<advance width="615"/>
	<unicode hex="0065"/>
	<anchor x="553" y="10" name="ogonek"/>
	<anchor x="305" y="0" name="bottom"/>
	<anchor x="336" y="700" name="top"/>
	<outline>
		<contour>
			<point x="526" y="153" type="line"/>
			<point x="382" y="111"/>
			<point x="269" y="101"/>
			<point x="94" y="101" type="curve"/>
			<point x="94" y="0" type="line"/>
			<point x="575" y="0" type="line"/>
		</contour>
		<contour>
			<point x="112" y="563" type="curve" smooth="yes"/>
			<point x="56" y="458"/>
			<point x="45" y="321"/>
			<point x="45" y="269" type="curve" smooth="yes"/>
			<point x="45" y="178"/>
			<point x="60" y="89"/>
			<point x="82" y="0" type="curve"/>
			<point x="259" y="0" type="line"/>
			<point x="216" y="101"/>
			<point x="185" y="183"/>
			<point x="185" y="290" type="curve" smooth="yes"/>
			<point x="185" y="372"/>
			<point x="205" y="470"/>
			<point x="249" y="536" type="curve" smooth="yes"/>
			<point x="275" y="575"/>
			<point x="309" y="601"/>
			<point x="342" y="601" type="curve" smooth="yes"/>
			<point x="364" y="601"/>
			<point x="395" y="591"/>
			<point x="427" y="583" type="curve" smooth="yes"/>
			<point x="457" y="576"/>
			<point x="492" y="570"/>
			<point x="527" y="575" type="curve"/>
			<point x="527" y="685" type="line"/>
			<point x="493" y="681"/>
			<point x="469" y="685"/>
			<point x="440" y="691" type="curve" smooth="yes"/>
			<point x="404" y="699"/>
			<point x="366" y="710"/>
			<point x="332" y="710" type="curve" smooth="yes"/>
			<point x="238" y="710"/>
			<point x="162" y="657"/>
		</contour>
		<contour>
			<point x="212" y="445" type="curve"/>
			<point x="185" y="445" type="line"/>
			<point x="185" y="290" type="line"/>
			<point x="185" y="372"/>
			<point x="238" y="370"/>
			<point x="280" y="370" type="curve" smooth="yes"/>
			<point x="364" y="370"/>
			<point x="435" y="365"/>
			<point x="527" y="345" type="curve"/>
			<point x="527" y="500" type="line"/>
			<point x="438" y="475"/>
			<point x="369" y="468"/>
			<point x="280" y="468" type="curve" smooth="yes"/>
			<point x="240" y="468"/>
			<point x="219" y="462"/>
		</contour>
	</outline>
</glyph>
<glyph name="f" format="2">
	<advance width="567"/>
	<unicode hex="0066"/>
	<anchor x="281" y="800" name="top"/>
	<anchor x="281" y="0" name="bottom"/>
	<outline>
		<contour>
			<point x="112" y="563" type="curve" smooth="yes"/>
			<point x="56" y="458"/>
			<point x="45" y="321"/>
			<point x="45" y="269" type="curve" smooth="yes"/>
			<point x="45" y="178"/>
			<point x="60" y="89"/>
			<point x="82" y="0" type="curve"/>
			<point x="259" y="0" type="line"/>
			<point x="216" y="101"/>
			<point x="185" y="163"/>
			<point x="185" y="270" type="curve" smooth="yes"/>
			<point x="185" y="352"/>
			<point x="205" y="470"/>
			<point x="249" y="536" type="curve" smooth="yes"/>
			<point x="275" y="575"/>
			<point x="309" y="601"/>
			<point x="342" y="601" type="curve" smooth="yes"/>
			<point x="364" y="601"/>
			<point x="395" y="591"/>
			<point x="427" y="583" type="curve" smooth="yes"/>
			<point x="457" y="576"/>
			<point x="492" y="570"/>
			<point x="527" y="575" type="curve"/>
			<point x="527" y="685" type="line"/>
			<point x="493" y="681"/>
			<point x="469" y="685"/>
			<point x="440" y="691" type="curve" smooth="yes"/>
			<point x="404" y="699"/>
			<point x="366" y="710"/>
			<point x="332" y="710" type="curve" smooth="yes"/>
			<point x="238" y="710"/>
			<point x="162" y="657"/>
		</contour>
		<contour>
			<point x="209" y="425" type="curve"/>
			<point x="185" y="425" type="line"/>
			<point x="185" y="270" type="line"/>
			<point x="185" y="352"/>
			<point x="238" y="350"/>
			<point x="280" y="350" type="curve" smooth="yes"/>
			<point x="364" y="350"/>
			<point x="435" y="345"/>
			<point x="527" y="325" type="curve"/>
			<point x="527" y="480" type="line"/>
			<point x="438" y="455"/>
			<point x="369" y="448"/>
			<point x="280" y="448" type="curve" smooth="yes"/>
			<point x="240" y="448"/>
			<point x="216" y="442"/>
		</contour>
	</outline>
</glyph>
<glyph name="i" format="2">
	<advance width="292"/>
	<unicode hex="0069"/>
	<anchor x="265" y="10" name="ogonek"/>
	<anchor x="166" y="700" name="top"/>
	<anchor x="17" y="700" name="topleft"/>
	<anchor x="146" y="0" name="bottom"/>
	<outline>
		<contour>
			<point x="110" y="700" type="curve"/>
			<point x="222" y="700" type="line"/>
			<point x="191" y="635"/>
			<point x="177" y="563"/>
			<point x="177" y="492" type="curve" smooth="yes"/>
			<point x="177" y="327"/>
			<point x="247" y="308"/>
			<point x="247" y="145" type="curve" smooth="yes"/>
			<point x="247" y="93"/>
			<point x="237" y="48"/>
			<point x="217" y="0" type="curve"/>
			<point x="45" y="0" type="line"/>
			<point x="80" y="78"/>
			<point x="96" y="123"/>
			<point x="96" y="189" type="curve" smooth="yes"/>
			<point x="96" y="279"/>
			<point x="52" y="385"/>
			<point x="52" y="473" type="curve" smooth="yes"/>
			<point x="52" y="553"/>
			<point x="78" y="633"/>
		</contour>
	</outline>
</glyph>
<glyph name="l" format="2">
	<advance width="617"/>
	<unicode hex="006C"/>
	<outline>
		<contour>
			<point x="554" y="327" type="curve"/>
			<point x="429" y="239" type="line"/>
			<point x="445" y="226"/>
			<point x="453" y="199"/>
			<point x="453" y="175" type="curve" smooth="yes"/>
			<point x="453" y="145"/>
			<point x="431" y="110"/>
			<point x="395" y="110" type="curve" smooth="yes"/>
			<point x="351" y="110"/>
			<point x="343" y="153"/>
			<point x="271" y="153" type="curve" smooth="yes"/>
			<point x="245" y="153"/>
			<point x="213" y="133"/>
			<point x="213" y="109" type="curve"/>
			<point x="90" y="109" type="line"/>
			<point x="90" y="0" type="line"/>
			<point x="242" y="0" type="line"/>
			<point x="242" y="16"/>
			<point x="260" y="37"/>
			<point x="286" y="37" type="curve" smooth="yes"/>
			<point x="328" y="37"/>
			<point x="353" y="-10"/>
			<point x="411" y="-10" type="curve" smooth="yes"/>
			<point x="526" y="-10"/>
			<point x="592" y="72"/>
			<point x="592" y="187" type="curve" smooth="yes"/>
			<point x="592" y="242"/>
			<point x="580" y="287"/>
		</contour>
		<contour>
			<point x="70" y="0" type="curve"/>
			<point x="242" y="0" type="line"/>
			<point x="203" y="91"/>
			<point x="188" y="198"/>
			<point x="188" y="304" type="curve" smooth="yes"/>
			<point x="188" y="451"/>
			<point x="207" y="597"/>
			<point x="243" y="700" type="curve"/>
			<point x="135" y="700" type="line"/>
			<point x="70" y="540"/>
			<point x="45" y="384"/>
			<point x="45" y="216" type="curve" smooth="yes"/>
			<point x="45" y="142"/>
			<point x="53" y="69"/>
		</contour>
	</outline>
</glyph>
<glyph name="p" format="2">
	<advance width="648"/>
	<unicode hex="0070"/>
	<outline>
		<contour>
			<point x="75" y="0" type="curve"/>
			<point x="242" y="0" type="line"/>
			<point x="203" y="91"/>
			<point x="188" y="198"/>
			<point x="188" y="304" type="curve" smooth="yes"/>
			<point x="188" y="451"/>
			<point x="207" y="597"/>
			<point x="243" y="700" type="curve"/>
			<point x="184" y="700"/>
			<point x="168" y="700"/>
			<point x="140" y="700" type="curve"/>
			<point x="85" y="540"/>
			<point x="50" y="384"/>
			<point x="50" y="216" type="curve" smooth="yes"/>
			<point x="50" y="142"/>
			<point x="58" y="69"/>
		</contour>
		<contour>
			<point x="127" y="376" type="curve"/>
			<point x="127" y="212" type="line"/>
			<point x="191" y="168"/>
			<point x="279" y="131"/>
			<point x="365" y="131" type="curve" smooth="yes"/>
			<point x="505" y="131"/>
			<point x="608" y="250"/>
			<point x="608" y="365" type="curve" smooth="yes"/>
			<point x="608" y="522"/>
			<point x="501" y="575"/>
			<point x="403" y="598" type="curve" smooth="yes"/>
			<point x="323" y="617"/>
			<point x="240" y="619"/>
			<point x="240" y="680" type="curve" smooth="yes"/>
			<point x="240" y="686"/>
			<point x="241" y="693"/>
			<point x="243" y="700" type="curve"/>
			<point x="140" y="700" type="line"/>
			<point x="140" y="650"/>
			<point x="160" y="600"/>
			<point x="216" y="558" type="curve" smooth="yes"/>
			<point x="314" y="484"/>
			<point x="478" y="500"/>
			<point x="478" y="382" type="curve" smooth="yes"/>
			<point x="478" y="281"/>
			<point x="390" y="262"/>
			<point x="333" y="262" type="curve" smooth="yes"/>
			<point x="269" y="262"/>
			<point x="157" y="318"/>
		</contour>
		<component base="_part.pupil" xOffset="-56" yOffset="99"/>
	</outline>
</glyph>
<glyph name="r" format="2">
	<advance width="633"/>
	<unicode hex="0072"/>
	<outline>
		<contour>
			<point x="122" y="376" type="curve"/>
			<point x="122" y="212" type="line"/>
			<point x="186" y="168"/>
			<point x="274" y="131"/>
			<point x="360" y="131" type="curve" smooth="yes"/>
			<point x="500" y="131"/>
			<point x="603" y="250"/>
			<point x="603" y="365" type="curve" smooth="yes"/>
			<point x="603" y="522"/>
			<point x="496" y="575"/>
			<point x="398" y="598" type="curve" smooth="yes"/>
			<point x="318" y="617"/>
			<point x="240" y="619"/>
			<point x="240" y="680" type="curve" smooth="yes"/>
			<point x="240" y="686"/>
			<point x="241" y="693"/>
			<point x="243" y="700" type="curve"/>
			<point x="135" y="700" type="line"/>
			<point x="135" y="650"/>
			<point x="155" y="600"/>
			<point x="211" y="558" type="curve" smooth="yes"/>
			<point x="309" y="484"/>
			<point x="473" y="500"/>
			<point x="473" y="382" type="curve" smooth="yes"/>
			<point x="473" y="281"/>
			<point x="385" y="262"/>
			<point x="328" y="262" type="curve" smooth="yes"/>
			<point x="264" y="262"/>
			<point x="152" y="318"/>
		</contour>
		<contour>
			<point x="410" y="241" type="curve"/>
			<point x="341" y="181" type="line"/>
			<point x="396" y="142"/>
			<point x="425" y="66"/>
			<point x="407" y="0" type="curve"/>
			<point x="557" y="0" type="line"/>
			<point x="558" y="7"/>
			<point x="558" y="13"/>
			<point x="558" y="20" type="curve" smooth="yes"/>
			<point x="558" y="109"/>
			<point x="480" y="194"/>
		</contour>
		<contour>
			<point x="70" y="0" type="curve"/>
			<point x="242" y="0" type="line"/>
			<point x="203" y="91"/>
			<point x="188" y="198"/>
			<point x="188" y="304" type="curve" smooth="yes"/>
			<point x="188" y="451"/>
			<point x="207" y="597"/>
			<point x="243" y="700" type="curve"/>
			<point x="135" y="700" type="line"/>
			<point x="80" y="540"/>
			<point x="45" y="384"/>
			<point x="45" y="216" type="curve" smooth="yes"/>
			<point x="45" y="142"/>
			<point x="53" y="69"/>
		</contour>
		<component base="_part.pupil" xOffset="-56" yOffset="99"/>
	</outline>
</glyph>
<glyph name="t" format="2">
	<advance width="741"/>
	<unicode hex="0074"/>
	<anchor x="381" y="350" name="center"/>
	<anchor x="381" y="0" name="bottom"/>
	<anchor x="381" y="700" name="top"/>
	<outline>
		<contour>
			<point x="453" y="700" type="curve"/>
			<point x="342" y="700" type="line"/>
			<point x="342" y="629"/>
			<point x="304" y="553"/>
			<point x="304" y="483" type="curve" smooth="yes"/>
			<point x="304" y="385"/>
			<point x="328" y="279"/>
			<point x="328" y="189" type="curve" smooth="yes"/>
			<point x="328" y="123"/>
			<point x="312" y="78"/>
			<point x="277" y="0" type="curve"/>
			<point x="449" y="0" type="line"/>
			<point x="469" y="38"/>
			<point x="479" y="83"/>
			<point x="479" y="135" type="curve" smooth="yes"/>
			<point x="479" y="278"/>
			<point x="429" y="327"/>
			<point x="429" y="483" type="curve" smooth="yes"/>
			<point x="429" y="553"/>
			<point x="432" y="595"/>
		</contour>
		<contour>
			<point x="417" y="539" type="line"/>
			<point x="435" y="542" type="line"/>
			<point x="450" y="486"/>
			<point x="521" y="457"/>
			<point x="593" y="457" type="curve" smooth="yes"/>
			<point x="629" y="457"/>
			<point x="665" y="464"/>
			<point x="716" y="479" type="curve"/>
			<point x="676" y="610" type="line"/>
			<point x="653" y="599"/>
			<point x="614" y="592"/>
			<point x="585" y="592" type="curve" smooth="yes"/>
			<point x="515" y="592"/>
			<point x="453" y="625"/>
			<point x="453" y="700" type="curve"/>
			<point x="382" y="700" type="line"/>
			<point x="382" y="539" type="line"/>
		</contour>
		<contour>
			<point x="306" y="542" type="curve"/>
			<point x="318" y="539" type="line"/>
			<point x="376" y="539" type="line"/>
			<point x="372" y="700" type="line"/>
			<point x="342" y="700" type="line"/>
			<point x="342" y="629"/>
			<point x="252" y="592"/>
			<point x="175" y="592" type="curve" smooth="yes"/>
			<point x="144" y="592"/>
			<point x="114" y="598"/>
			<point x="89" y="610" type="curve"/>
			<point x="49" y="489" type="line"/>
			<point x="80" y="474"/>
			<point x="126" y="467"/>
			<point x="153" y="467" type="curve" smooth="yes"/>
			<point x="219" y="467"/>
			<point x="285" y="489"/>
		</contour>
		<contour>
			<point x="437" y="312" type="line"/>
			<point x="455" y="325" type="line"/>
			<point x="498" y="258"/>
			<point x="566" y="239"/>
			<point x="625" y="241" type="curve" smooth="yes"/>
			<point x="662" y="242"/>
			<point x="690" y="247"/>
			<point x="721" y="262" type="curve"/>
			<point x="681" y="393" type="line"/>
			<point x="658" y="382"/>
			<point x="619" y="375"/>
			<point x="590" y="375" type="curve" smooth="yes"/>
			<point x="520" y="375"/>
			<point x="429" y="408"/>
			<point x="429" y="483" type="curve"/>
			<point x="408" y="483" type="line"/>
			<point x="408" y="312" type="line"/>
		</contour>
		<contour>
			<point x="311" y="323" type="curve"/>
			<point x="348" y="323" type="line"/>
			<point x="335" y="480" type="line"/>
			<point x="304" y="483" type="line"/>
			<point x="304" y="412"/>
			<point x="228" y="372"/>
			<point x="151" y="372" type="curve" smooth="yes"/>
			<point x="120" y="372"/>
			<point x="90" y="378"/>
			<point x="65" y="390" type="curve"/>
			<point x="25" y="269" type="line"/>
			<point x="54" y="252"/>
			<point x="100" y="243"/>
			<point x="145" y="243" type="curve" smooth="yes"/>
			<point x="227" y="243"/>
			<point x="311" y="270"/>
		</contour>
	</outline>
</glyph>
<glyph name="u" format="2">
	<advance width="624"/>
	<unicode hex="0075"/>
	<anchor x="562" y="10" name="ogonek"/>
	<anchor x="312" y="700" name="top"/>
	<anchor x="604" y="700" name="topright"/>
	<anchor x="312" y="0" name="bottom"/>
	<outline>
		<contour>
			<point x="35" y="209" type="curve" smooth="yes"/>
			<point x="35" y="352"/>
			<point x="140" y="407"/>
			<point x="140" y="539" type="curve" smooth="yes"/>
			<point x="140" y="618"/>
			<point x="85" y="693"/>
			<point x="73" y="701" type="curve"/>
			<point x="238" y="700" type="line"/>
			<point x="253" y="669"/>
			<point x="267" y="603"/>
			<point x="267" y="539" type="curve" smooth="yes"/>
			<point x="267" y="381"/>
			<point x="177" y="352"/>
			<point x="177" y="229" type="curve" smooth="yes"/>
			<point x="177" y="175"/>
			<point x="226" y="109"/>
			<point x="312" y="109" type="curve" smooth="yes"/>
			<point x="398" y="109"/>
			<point x="447" y="175"/>
			<point x="447" y="229" type="curve" smooth="yes"/>
			<point x="447" y="352"/>
			<point x="357" y="381"/>
			<point x="357" y="539" type="curve" smooth="yes"/>
			<point x="357" y="603"/>
			<point x="371" y="669"/>
			<point x="386" y="700" type="curve"/>
			<point x="551" y="701" type="line"/>
			<point x="539" y="693"/>
			<point x="484" y="618"/>
			<point x="484" y="539" type="curve" smooth="yes"/>
			<point x="484" y="407"/>
			<point x="589" y="352"/>
			<point x="589" y="209" type="curve" smooth="yes"/>
			<point x="589" y="20"/>
			<point x="407" y="-10"/>
			<point x="312" y="-10" type="curve" smooth="yes"/>
			<point x="217" y="-10"/>
			<point x="35" y="20"/>
		</contour>
	</outline>
</glyph>
<glyph name="periodcentered" format="2">
	<advance width="230"/>
	<unicode hex="00B7"/>
	<outline>
		<contour>
			<point x="114" y="260" type="curve" smooth="yes"/>
			<point x="149" y="260"/>
			<point x="180" y="289"/>
			<point x="180" y="324" type="curve" smooth="yes"/>
			<point x="180" y="360"/>
			<point x="149" y="391"/>
			<point x="114" y="390" type="curve" smooth="yes"/>
			<point x="78" y="389"/>
			<point x="50" y="360"/>
			<point x="50" y="324" type="curve" smooth="yes"/>
			<point x="50" y="289"/>
			<point x="78" y="260"/>
		</contour>
	</outline>
</glyph>
<glyph name="AE" format="2">
	<advance width="837"/>
	<unicode hex="00C6"/>
	<outline>
		<contour>
			<point x="363" y="101" type="curve"/>
			<point x="363" y="0" type="line"/>
			<point x="812" y="0" type="line"/>
			<point x="763" y="153" type="line"/>
			<point x="628" y="114"/>
			<point x="520" y="102"/>
		</contour>
		<contour>
			<point x="468" y="567" type="curve"/>
			<point x="438" y="424" type="line"/>
			<point x="463" y="442"/>
			<point x="484" y="449"/>
			<point x="502" y="449" type="curve" smooth="yes"/>
			<point x="576" y="449"/>
			<point x="614" y="334"/>
			<point x="757" y="334" type="curve"/>
			<point x="757" y="483" type="line"/>
			<point x="742" y="480"/>
			<point x="727" y="478"/>
			<point x="712" y="478" type="curve" smooth="yes"/>
			<point x="620" y="478"/>
			<point x="580" y="575"/>
			<point x="498" y="575" type="curve" smooth="yes"/>
			<point x="488" y="575"/>
			<point x="478" y="572"/>
		</contour>
		<contour>
			<point x="468" y="571" type="line"/>
			<point x="526" y="599"/>
			<point x="599" y="609"/>
			<point x="650" y="609" type="curve" smooth="yes"/>
			<point x="703" y="609"/>
			<point x="719" y="598"/>
			<point x="756" y="582" type="curve"/>
			<point x="756" y="700" type="line"/>
			<point x="418" y="700" type="line"/>
		</contour>
		<contour>
			<point x="347" y="0" type="curve"/>
			<point x="519" y="0" type="line"/>
			<point x="504" y="35"/>
			<point x="492" y="73"/>
			<point x="484" y="112" type="curve" smooth="yes"/>
			<point x="471" y="174"/>
			<point x="465" y="239"/>
			<point x="465" y="304" type="curve" smooth="yes"/>
			<point x="465" y="381"/>
			<point x="470" y="458"/>
			<point x="480" y="529" type="curve"/>
			<point x="478" y="549" type="line"/>
			<point x="467" y="598" type="line"/>
			<point x="495" y="611" type="line"/>
			<point x="502" y="643"/>
			<point x="511" y="673"/>
			<point x="520" y="700" type="curve"/>
			<point x="412" y="700" type="line"/>
			<point x="399" y="661"/>
			<point x="385" y="622"/>
			<point x="375" y="583" type="curve" smooth="yes"/>
			<point x="341" y="463"/>
			<point x="322" y="343"/>
			<point x="322" y="216" type="curve" smooth="yes"/>
			<point x="322" y="142"/>
			<point x="330" y="69"/>
		</contour>
		<contour>
			<point x="424" y="700" type="line"/>
			<point x="308" y="700" type="line"/>
			<point x="308" y="555"/>
			<point x="35" y="373"/>
			<point x="35" y="135" type="curve" smooth="yes"/>
			<point x="35" y="90"/>
			<point x="35" y="53"/>
			<point x="45" y="0" type="curve"/>
			<point x="201" y="0" type="line"/>
			<point x="199" y="13"/>
			<point x="196" y="26"/>
			<point x="196" y="38" type="curve" smooth="yes"/>
			<point x="196" y="57"/>
			<point x="205" y="68"/>
			<point x="222" y="70" type="curve" smooth="yes"/>
			<point x="249" y="73"/>
			<point x="311" y="76"/>
			<point x="362" y="76" type="curve"/>
			<point x="362" y="178" type="line"/>
			<point x="302" y="178"/>
			<point x="208" y="182"/>
			<point x="170" y="207" type="curve"/>
			<point x="188" y="159" type="line"/>
			<point x="188" y="316"/>
			<point x="333" y="470"/>
			<point x="363" y="560" type="curve"/>
			<point x="427" y="560" type="line"/>
		</contour>
	</outline>
</glyph>
<glyph name="Eth" format="2">
	<advance width="662"/>
	<unicode hex="00D0"/>
	<outline>
		<contour>
			<point x="85" y="0" type="curve"/>
			<point x="252" y="0" type="line"/>
			<point x="213" y="91"/>
			<point x="198" y="198"/>
			<point x="198" y="304" type="curve" smooth="yes"/>
			<point x="198" y="451"/>
			<point x="217" y="597"/>
			<point x="253" y="700" type="curve"/>
			<point x="194" y="700"/>
			<point x="178" y="700"/>
			<point x="150" y="700" type="curve"/>
			<point x="85" y="540"/>
			<point x="60" y="384"/>
			<point x="60" y="216" type="curve" smooth="yes"/>
			<point x="60" y="142"/>
			<point x="68" y="69"/>
		</contour>
		<contour>
			<point x="142" y="163" type="curve"/>
			<point x="142" y="0" type="line"/>
			<point x="214" y="0"/>
			<point x="296" y="0"/>
			<point x="359" y="0" type="curve" smooth="yes"/>
			<point x="415" y="0"/>
			<point x="632" y="0"/>
			<point x="632" y="206" type="curve" smooth="yes"/>
			<point x="632" y="352"/>
			<point x="504" y="442"/>
			<point x="395" y="502" type="curve" smooth="yes"/>
			<point x="313" y="547"/>
			<point x="247" y="599"/>
			<point x="247" y="662" type="curve" smooth="yes"/>
			<point x="247" y="674"/>
			<point x="249" y="686"/>
			<point x="253" y="700" type="curve"/>
			<point x="204" y="700"/>
			<point x="181" y="700"/>
			<point x="150" y="700" type="curve"/>
			<point x="139" y="650"/>
			<point x="149" y="514"/>
			<point x="170" y="472" type="curve"/>
			<point x="214" y="500" type="line"/>
			<point x="263" y="448"/>
			<point x="297" y="425"/>
			<point x="350" y="395" type="curve" smooth="yes"/>
			<point x="465" y="330"/>
			<point x="494" y="269"/>
			<point x="494" y="218" type="curve" smooth="yes"/>
			<point x="494" y="142"/>
			<point x="435" y="108"/>
			<point x="358" y="108" type="curve" smooth="yes"/>
			<point x="241" y="108"/>
			<point x="156" y="142"/>
		</contour>
		<contour>
			<point x="15" y="326" type="curve"/>
			<point x="15" y="190" type="line"/>
			<point x="67" y="205"/>
			<point x="112" y="209"/>
			<point x="176" y="209" type="curve" smooth="yes"/>
			<point x="236" y="209"/>
			<point x="281" y="205"/>
			<point x="337" y="190" type="curve"/>
			<point x="337" y="326" type="line"/>
			<point x="281" y="312"/>
			<point x="239" y="301"/>
			<point x="176" y="301" type="curve" smooth="yes"/>
			<point x="115" y="301"/>
			<point x="68" y="312"/>
		</contour>
	</outline>
</glyph>
<glyph name="Thorn" format="2">
	<advance width="643"/>
	<unicode hex="00DE"/>
	<outline>
		<contour>
			<point x="75" y="0" type="curve"/>
			<point x="242" y="0" type="line"/>
			<point x="203" y="91"/>
			<point x="188" y="198"/>
			<point x="188" y="304" type="curve" smooth="yes"/>
			<point x="188" y="451"/>
			<point x="207" y="597"/>
			<point x="243" y="700" type="curve"/>
			<point x="184" y="700"/>
			<point x="168" y="700"/>
			<point x="140" y="700" type="curve"/>
			<point x="85" y="540"/>
			<point x="50" y="384"/>
			<point x="50" y="216" type="curve" smooth="yes"/>
			<point x="50" y="142"/>
			<point x="58" y="69"/>
		</contour>
		<contour>
			<point x="151" y="529" type="curve"/>
			<point x="127" y="414" type="line"/>
			<point x="333" y="513"/>
			<point x="478" y="430"/>
			<point x="478" y="342" type="curve" smooth="yes"/>
			<point x="478" y="241"/>
			<point x="390" y="222"/>
			<point x="333" y="222" type="curve" smooth="yes"/>
			<point x="269" y="222"/>
			<point x="157" y="278"/>
			<point x="127" y="336" type="curve"/>
			<point x="127" y="172" type="line"/>
			<point x="191" y="128"/>
			<point x="279" y="91"/>
			<point x="365" y="91" type="curve" smooth="yes"/>
			<point x="505" y="91"/>
			<point x="608" y="210"/>
			<point x="608" y="325" type="curve" smooth="yes"/>
			<point x="608" y="487"/>
			<point x="484" y="569"/>
			<point x="306" y="565" type="curve" smooth="yes"/>
			<point x="256" y="564"/>
			<point x="192" y="549"/>
		</contour>
		<component base="_part.pupil" xOffset="-56" yOffset="59"/>
	</outline>
</glyph>
<glyph name="oslash" format="2">
	<advance width="873"/>
	<unicode hex="00F8"/>
	<anchor x="436" y="350" name="center"/>
	<anchor x="483" y="10" name="ogonek"/>
	<anchor x="436" y="700" name="top"/>
	<anchor x="838" y="700" name="topright"/>
	<anchor x="35" y="700" name="topleft"/>
	<anchor x="436" y="0" name="bottom"/>
	<outline>
		<contour>
			<point x="35" y="2" type="curve"/>
			<point x="209" y="2" type="line"/>
			<point x="208" y="10"/>
			<point x="207" y="19"/>
			<point x="207" y="29" type="curve" smooth="yes"/>
			<point x="207" y="215"/>
			<point x="354" y="288"/>
			<point x="510" y="345" type="curve" smooth="yes"/>
			<point x="671" y="404"/>
			<point x="838" y="484"/>
			<point x="838" y="700" type="curve"/>
			<point x="663" y="700" type="line"/>
			<point x="664" y="692"/>
			<point x="665" y="684"/>
			<point x="665" y="675" type="curve" smooth="yes"/>
			<point x="665" y="491"/>
			<point x="518" y="417"/>
			<point x="361" y="357" type="curve" smooth="yes"/>
			<point x="200" y="296"/>
			<point x="35" y="213"/>
		</contour>
		<contour>
			<point x="35" y="335" type="curve" smooth="yes"/>
			<point x="35" y="148"/>
			<point x="351" y="77"/>
			<point x="351" y="0" type="curve"/>
			<point x="520" y="0" type="line"/>
			<point x="520" y="77"/>
			<point x="838" y="148"/>
			<point x="838" y="335" type="curve" smooth="yes"/>
			<point x="838" y="557"/>
			<point x="489" y="609"/>
			<point x="489" y="700" type="curve"/>
			<point x="382" y="700" type="line"/>
			<point x="382" y="609"/>
			<point x="35" y="557"/>
		</contour>
		<contour>
			<point x="211" y="335" type="curve" smooth="yes"/>
			<point x="211" y="480"/>
			<point x="395" y="513"/>
			<point x="433" y="609" type="curve"/>
			<point x="438" y="609" type="line"/>
			<point x="477" y="513"/>
			<point x="660" y="482"/>
			<point x="660" y="335" type="curve" smooth="yes"/>
			<point x="660" y="222"/>
			<point x="473" y="148"/>
			<point x="439" y="79" type="curve"/>
			<point x="434" y="79" type="line"/>
			<point x="398" y="148"/>
			<point x="211" y="222"/>
		</contour>
	</outline>
</glyph>
<glyph name="Ldot" format="2">
	<advance width="536"/>
	<unicode hex="013F"/>
	<anchor x="296" y="350" name="center"/>
	<anchor x="296" y="700" name="top"/>
	<anchor x="571" y="700" name="topright"/>
	<anchor x="296" y="0" name="bottom"/>
	<outline>
		<contour>
			<point x="344" y="260" type="curve" smooth="yes"/>
			<point x="379" y="260"/>
			<point x="410" y="289"/>
			<point x="410" y="324" type="curve" smooth="yes"/>
			<point x="410" y="360"/>
			<point x="379" y="391"/>
			<point x="344" y="390" type="curve" smooth="yes"/>
			<point x="308" y="389"/>
			<point x="280" y="360"/>
			<point x="280" y="324" type="curve" smooth="yes"/>
			<point x="280" y="289"/>
			<point x="308" y="260"/>
		</contour>
		<component base="L"/>
	</outline>
</glyph>
<glyph name="ldot" format="2">
	<advance width="617"/>
	<unicode hex="0140"/>
	<outline>
		<contour>
			<point x="324" y="260" type="curve" smooth="yes"/>
			<point x="359" y="260"/>
			<point x="390" y="289"/>
			<point x="390" y="324" type="curve" smooth="yes"/>
			<point x="390" y="360"/>
			<point x="359" y="391"/>
			<point x="324" y="390" type="curve" smooth="yes"/>
			<point x="288" y="389"/>
			<point x="260" y="360"/>
			<point x="260" y="324" type="curve" smooth="yes"/>
			<point x="260" y="289"/>
			<point x="288" y="260"/>
		</contour>
		<component base="l"/>
	</outline>
</glyph>
<glyph name="Nacute" format="2">
	<advance width="682"/>
	<unicode hex="0143"/>
	<outline>
		<contour>
			<point x="316" y="870" type="curve"/>
			<point x="482" y="899" type="line"/>
			<point x="482" y="827"/>
			<point x="425" y="760"/>
			<point x="388" y="740" type="curve"/>
			<point x="274" y="740" type="line"/>
			<point x="310" y="767"/>
			<point x="327" y="810"/>
			<point x="327" y="834" type="curve" smooth="yes"/>
			<point x="327" y="845"/>
			<point x="323" y="860"/>
		</contour>
		<component base="N"/>
	</outline>
</glyph>
<glyph name="OE" format="2">
	<advance width="940"/>
	<unicode hex="0152"/>
	<outline>
		<contour>
			<point x="461" y="101" type="curve"/>
			<point x="461" y="0" type="line"/>
			<point x="910" y="0" type="line"/>
			<point x="861" y="153" type="line"/>
			<point x="726" y="114"/>
			<point x="618" y="102"/>
		</contour>
		<contour>
			<point x="516" y="567" type="curve"/>
			<point x="486" y="424" type="line"/>
			<point x="511" y="442"/>
			<point x="532" y="449"/>
			<point x="550" y="449" type="curve" smooth="yes"/>
			<point x="624" y="449"/>
			<point x="662" y="334"/>
			<point x="805" y="334" type="curve"/>
			<point x="805" y="483" type="line"/>
			<point x="790" y="480"/>
			<point x="775" y="478"/>
			<point x="760" y="478" type="curve" smooth="yes"/>
			<point x="668" y="478"/>
			<point x="628" y="575"/>
			<point x="546" y="575" type="curve" smooth="yes"/>
			<point x="536" y="575"/>
			<point x="526" y="572"/>
		</contour>
		<contour>
			<point x="516" y="571" type="line"/>
			<point x="574" y="599"/>
			<point x="647" y="609"/>
			<point x="698" y="609" type="curve" smooth="yes"/>
			<point x="751" y="609"/>
			<point x="767" y="598"/>
			<point x="804" y="582" type="curve"/>
			<point x="804" y="700" type="line"/>
			<point x="466" y="700" type="line"/>
		</contour>
		<contour>
			<point x="418" y="583" type="curve"/>
			<point x="423" y="583" type="line"/>
			<point x="469" y="700" type="line"/>
			<point x="413" y="700" type="line"/>
			<point x="413" y="609"/>
			<point x="25" y="557"/>
			<point x="25" y="335" type="curve" smooth="yes"/>
			<point x="25" y="148"/>
			<point x="302" y="77"/>
			<point x="302" y="0" type="curve"/>
			<point x="449" y="0" type="line"/>
			<point x="399" y="79" type="line"/>
			<point x="375" y="79" type="line"/>
			<point x="339" y="148"/>
			<point x="202" y="222"/>
			<point x="202" y="335" type="curve" smooth="yes"/>
			<point x="202" y="480"/>
			<point x="380" y="487"/>
		</contour>
		<contour>
			<point x="395" y="0" type="curve"/>
			<point x="567" y="0" type="line"/>
			<point x="552" y="35"/>
			<point x="540" y="73"/>
			<point x="532" y="112" type="curve" smooth="yes"/>
			<point x="519" y="174"/>
			<point x="513" y="239"/>
			<point x="513" y="304" type="curve" smooth="yes"/>
			<point x="513" y="381"/>
			<point x="518" y="458"/>
			<point x="528" y="529" type="curve"/>
			<point x="526" y="549" type="line"/>
			<point x="515" y="598" type="line"/>
			<point x="543" y="611" type="line"/>
			<point x="550" y="643"/>
			<point x="559" y="673"/>
			<point x="568" y="700" type="curve"/>
			<point x="460" y="700" type="line"/>
			<point x="447" y="661"/>
			<point x="433" y="622"/>
			<point x="423" y="583" type="curve" smooth="yes"/>
			<point x="392" y="462"/>
			<point x="370" y="343"/>
			<point x="370" y="216" type="curve" smooth="yes"/>
			<point x="370" y="142"/>
			<point x="378" y="69"/>
		</contour>
		<component base="_part.pupil" xOffset="-78" yOffset="50"/>
	</outline>
</glyph>
<glyph name="gravecomb" format="2">
	<advance width="0"/>
	<unicode hex="0300"/>
	<anchor x="-202" y="899" name="top"/>
	<anchor x="-152" y="700" name="_top"/>
	<outline>
		<contour>
			<point x="-308" y="899" type="curve"/>
			<point x="-142" y="870" type="line"/>
			<point x="-149" y="860"/>
			<point x="-153" y="845"/>
			<point x="-153" y="834" type="curve" smooth="yes"/>
			<point x="-153" y="810"/>
			<point x="-136" y="767"/>
			<point x="-100" y="740" type="curve"/>
			<point x="-214" y="740" type="line"/>
			<point x="-251" y="760"/>
			<point x="-308" y="827"/>
		</contour>
	</outline>
</glyph>
<glyph name="uni0302" format="2">
	<advance width="0"/>
	<unicode hex="0302"/>
	<anchor x="-300" y="850" name="top"/>
	<anchor x="-300" y="700" name="_top"/>
	<outline>
		<contour>
			<point x="-368" y="740" type="curve"/>
			<point x="-490" y="740" type="line"/>
			<point x="-460" y="781"/>
			<point x="-390" y="800"/>
			<point x="-370" y="850" type="curve"/>
			<point x="-230" y="850" type="line"/>
			<point x="-210" y="800"/>
			<point x="-140" y="781"/>
			<point x="-110" y="740" type="curve"/>
			<point x="-232" y="740" type="line"/>
			<point x="-250" y="765"/>
			<point x="-288" y="772"/>
			<point x="-298" y="800" type="curve"/>
			<point x="-302" y="800" type="line"/>
			<point x="-312" y="772"/>
			<point x="-350" y="765"/>
		</contour>
	</outline>
</glyph>
<glyph name="tildecomb" format="2">
	<advance width="0"/>
	<unicode hex="0303"/>
	<anchor x="-290" y="860" name="top"/>
	<anchor x="-290" y="700" name="_top"/>
	<outline>
		<contour>
			<point x="-471" y="740" type="curve"/>
			<point x="-383" y="740" type="line"/>
			<point x="-383" y="768"/>
			<point x="-366" y="785"/>
			<point x="-347" y="785" type="curve" smooth="yes"/>
			<point x="-313" y="785"/>
			<point x="-288" y="730"/>
			<point x="-211" y="730" type="curve" smooth="yes"/>
			<point x="-139" y="730"/>
			<point x="-100" y="777"/>
			<point x="-100" y="845" type="curve"/>
			<point x="-174" y="845" type="line"/>
			<point x="-174" y="820"/>
			<point x="-183" y="800"/>
			<point x="-211" y="800" type="curve" smooth="yes"/>
			<point x="-257" y="800"/>
			<point x="-278" y="860"/>
			<point x="-349" y="860" type="curve" smooth="yes"/>
			<point x="-430" y="860"/>
			<point x="-471" y="797"/>
		</contour>
	</outline>
</glyph>
<glyph name="uni0307" format="2">
	<advance width="0"/>
	<unicode hex="0307"/>
	<anchor x="-250" y="845" name="top"/>
	<anchor x="-250" y="700" name="_top"/>
	<outline>
		<contour>
			<point x="-251" y="745" type="curve" smooth="yes"/>
			<point x="-224" y="745"/>
			<point x="-200" y="767"/>
			<point x="-200" y="795" type="curve" smooth="yes"/>
			<point x="-200" y="822"/>
			<point x="-224" y="845"/>
			<point x="-251" y="845" type="curve" smooth="yes"/>
			<point x="-278" y="845"/>
			<point x="-300" y="822"/>
			<point x="-300" y="795" type="curve" smooth="yes"/>
			<point x="-300" y="767"/>
			<point x="-278" y="745"/>
		</contour>
	</outline>
</glyph>
<glyph name="uni0308" format="2">
	<advance width="0"/>
	<unicode hex="0308"/>
	<anchor x="-337" y="845" name="top"/>
	<anchor x="-337" y="700" name="_top"/>
	<outline>
		<contour>
			<point x="-426" y="745" type="curve" smooth="yes"/>
			<point x="-399" y="745"/>
			<point x="-375" y="767"/>
			<point x="-375" y="795" type="curve" smooth="yes"/>
			<point x="-375" y="822"/>
			<point x="-399" y="845"/>
			<point x="-426" y="845" type="curve" smooth="yes"/>
			<point x="-453" y="845"/>
			<point x="-475" y="822"/>
			<point x="-475" y="795" type="curve" smooth="yes"/>
			<point x="-475" y="767"/>
			<point x="-453" y="745"/>
		</contour>
		<contour>
			<point x="-251" y="745" type="curve" smooth="yes"/>
			<point x="-224" y="745"/>
			<point x="-200" y="767"/>
			<point x="-200" y="795" type="curve" smooth="yes"/>
			<point x="-200" y="822"/>
			<point x="-224" y="845"/>
			<point x="-251" y="845" type="curve" smooth="yes"/>
			<point x="-278" y="845"/>
			<point x="-300" y="822"/>
			<point x="-300" y="795" type="curve" smooth="yes"/>
			<point x="-300" y="767"/>
			<point x="-278" y="745"/>
		</contour>
	</outline>
</glyph>
<glyph name="uni030A" format="2">
	<advance width="0"/>
	<unicode hex="030A"/>
	<anchor x="-250" y="871" name="top"/>
	<anchor x="-250" y="700" name="_top"/>
	<outline>
		<contour>
			<point x="-326" y="795" type="curve" smooth="yes"/>
			<point x="-326" y="752"/>
			<point x="-293" y="719"/>
			<point x="-250" y="719" type="curve" smooth="yes"/>
			<point x="-211" y="719"/>
			<point x="-174" y="752"/>
			<point x="-174" y="795" type="curve" smooth="yes"/>
			<point x="-174" y="838"/>
			<point x="-211" y="871"/>
			<point x="-250" y="871" type="curve" smooth="yes"/>
			<point x="-293" y="871"/>
			<point x="-326" y="838"/>
		</contour>
		<contour>
			<point x="-275" y="795" type="curve" smooth="yes"/>
			<point x="-275" y="809"/>
			<point x="-264" y="820"/>
			<point x="-250" y="820" type="curve" smooth="yes"/>
			<point x="-237" y="820"/>
			<point x="-225" y="809"/>
			<point x="-225" y="795" type="curve" smooth="yes"/>
			<point x="-225" y="781"/>
			<point x="-237" y="770"/>
			<point x="-250" y="770" type="curve" smooth="yes"/>
			<point x="-264" y="770"/>
			<point x="-275" y="781"/>
		</contour>
	</outline>
</glyph>
<glyph name="uni0327" format="2">
	<advance width="0"/>
	<unicode hex="0327"/>
	<anchor x="-203" y="0" name="_bottom"/>
	<anchor x="-203" y="-239" name="bottom"/>
	<outline>
		<contour>
			<point x="-237" y="11" type="line"/>
			<point x="-262" y="-116" type="line"/>
			<point x="-247" y="-108"/>
			<point x="-225" y="-99"/>
			<point x="-208" y="-99" type="curve" smooth="yes"/>
			<point x="-193" y="-99"/>
			<point x="-181" y="-106"/>
			<point x="-181" y="-125" type="curve" smooth="yes"/>
			<point x="-181" y="-159"/>
			<point x="-218" y="-164"/>
			<point x="-233" y="-164" type="curve" smooth="yes"/>
			<point x="-248" y="-164"/>
			<point x="-259" y="-162"/>
			<point x="-272" y="-159" type="curve"/>
			<point x="-226" y="-259" type="line"/>
			<point x="-188" y="-249"/>
			<point x="-159" y="-231"/>
			<point x="-138" y="-210" type="curve" smooth="yes"/>
			<point x="-112" y="-184"/>
			<point x="-100" y="-153"/>
			<point x="-100" y="-129" type="curve" smooth="yes"/>
			<point x="-100" y="-81"/>
			<point x="-131" y="-55"/>
			<point x="-163" y="-55" type="curve" smooth="yes"/>
			<point x="-174" y="-55"/>
			<point x="-185" y="-58"/>
			<point x="-195" y="-64" type="curve"/>
			<point x="-135" y="11" type="line"/>
		</contour>
	</outline>
</glyph>
<glyph name="uni1E9E" format="2">
	<advance width="638"/>
	<unicode hex="1E9E"/>
	<outline>
		<contour>
			<point x="50" y="0" type="curve"/>
			<point x="225" y="0" type="line"/>
			<point x="247" y="49"/>
			<point x="258" y="111"/>
			<point x="258" y="179" type="curve" smooth="yes"/>
			<point x="258" y="307"/>
			<point x="202" y="385"/>
			<point x="202" y="472" type="curve" smooth="yes"/>
			<point x="202" y="539"/>
			<point x="256" y="610"/>
			<point x="330" y="610" type="curve" smooth="yes"/>
			<point x="362" y="610"/>
			<point x="390" y="586"/>
			<point x="390" y="545" type="curve" smooth="yes"/>
			<point x="390" y="504"/>
			<point x="362" y="446"/>
			<point x="278" y="379" type="curve"/>
			<point x="313" y="293" type="line"/>
			<point x="404" y="344"/>
			<point x="509" y="436"/>
			<point x="509" y="558" type="curve" smooth="yes"/>
			<point x="509" y="665"/>
			<point x="414" y="720"/>
			<point x="330" y="720" type="curve" smooth="yes"/>
			<point x="228" y="720"/>
			<point x="60" y="664"/>
			<point x="60" y="446" type="curve" smooth="yes"/>
			<point x="60" y="344"/>
			<point x="112" y="285"/>
			<point x="112" y="197" type="curve" smooth="yes"/>
			<point x="112" y="109"/>
			<point x="102" y="57"/>
		</contour>
		<contour>
			<point x="325" y="165" type="curve"/>
			<point x="325" y="0" type="line"/>
			<point x="345" y="-13"/>
			<point x="371" y="-19"/>
			<point x="400" y="-19" type="curve" smooth="yes"/>
			<point x="490" y="-19"/>
			<point x="603" y="47"/>
			<point x="603" y="213" type="curve" smooth="yes"/>
			<point x="603" y="344"/>
			<point x="508" y="414"/>
			<point x="400" y="414" type="curve" smooth="yes"/>
			<point x="372" y="414"/>
			<point x="343" y="408"/>
			<point x="315" y="395" type="curve"/>
			<point x="313" y="293" type="line"/>
			<point x="333" y="305"/>
			<point x="354" y="310"/>
			<point x="375" y="310" type="curve" smooth="yes"/>
			<point x="440" y="310"/>
			<point x="481" y="264"/>
			<point x="481" y="213" type="curve" smooth="yes"/>
			<point x="481" y="157"/>
			<point x="448" y="126"/>
			<point x="407" y="126" type="curve" smooth="yes"/>
			<point x="381" y="126"/>
			<point x="351" y="139"/>
		</contour>
	</outline>
</glyph>
<glyph name="endash" format="2">
	<advance width="682"/>
	<unicode hex="2013"/>
	<outline>
		<contour>
			<point x="45" y="410" type="curve"/>
			<point x="45" y="245" type="line"/>
			<point x="104" y="256"/>
			<point x="219" y="262"/>
			<point x="335" y="262" type="curve" smooth="yes"/>
			<point x="457" y="262"/>
			<point x="579" y="256"/>
			<point x="637" y="245" type="curve"/>
			<point x="637" y="410" type="line"/>
			<point x="579" y="393"/>
			<point x="457" y="387"/>
			<point x="335" y="388" type="curve" smooth="yes"/>
			<point x="219" y="389"/>
			<point x="104" y="394"/>
		</contour>
	</outline>
</glyph>
<glyph name="emdash" format="2">
	<advance width="936"/>
	<unicode hex="2014"/>
	<outline>
		<contour>
			<point x="45" y="410" type="curve"/>
			<point x="45" y="245" type="line"/>
			<point x="125" y="256"/>
			<point x="297" y="261"/>
			<point x="471" y="261" type="curve" smooth="yes"/>
			<point x="640" y="261"/>
			<point x="812" y="256"/>
			<point x="891" y="245" type="curve"/>
			<point x="891" y="410" type="line"/>
			<point x="813" y="397"/>
			<point x="643" y="390"/>
			<point x="471" y="390" type="curve" smooth="yes"/>
			<point x="300" y="390"/>
			<point x="125" y="397"/>
		</contour>
	</outline>
</glyph>
<glyph name="bullet" format="2">
	<advance width="300"/>
	<unicode hex="2022"/>
	<outline>
		<contour>
			<point x="148" y="225" type="curve" smooth="yes"/>
			<point x="202" y="225"/>
			<point x="250" y="270"/>
			<point x="250" y="323" type="curve" smooth="yes"/>
			<point x="250" y="378"/>
			<point x="202" y="426"/>
			<point x="148" y="424" type="curve" smooth="yes"/>
			<point x="93" y="423"/>
			<point x="50" y="378"/>
			<point x="50" y="323" type="curve" smooth="yes"/>
			<point x="50" y="270"/>
			<point x="93" y="225"/>
		</contour>
	</outline>
</glyph>
<glyph name="Euro" format="2">
	<advance width="669"/>
	<unicode hex="20AC"/>
	<guideline x="390" y="325" angle="0"/>
	<outline>
		<contour>
			<point x="162" y="350" type="curve"/>
			<point x="302" y="350" type="line"/>
			<point x="302" y="501"/>
			<point x="371" y="601"/>
			<point x="459" y="601" type="curve" smooth="yes"/>
			<point x="481" y="601"/>
			<point x="512" y="590"/>
			<point x="544" y="583" type="curve" smooth="yes"/>
			<point x="574" y="576"/>
			<point x="609" y="570"/>
			<point x="644" y="575" type="curve"/>
			<point x="644" y="685" type="line"/>
			<point x="610" y="681"/>
			<point x="586" y="685"/>
			<point x="557" y="691" type="curve" smooth="yes"/>
			<point x="521" y="698"/>
			<point x="478" y="710"/>
			<point x="444" y="710" type="curve" smooth="yes"/>
			<point x="265" y="710"/>
			<point x="162" y="560"/>
		</contour>
		<contour>
			<point x="444" y="-10" type="curve" smooth="yes"/>
			<point x="478" y="-10"/>
			<point x="521" y="2"/>
			<point x="557" y="9" type="curve" smooth="yes"/>
			<point x="586" y="15"/>
			<point x="610" y="19"/>
			<point x="644" y="15" type="curve"/>
			<point x="644" y="125" type="line"/>
			<point x="609" y="130"/>
			<point x="574" y="124"/>
			<point x="544" y="117" type="curve" smooth="yes"/>
			<point x="512" y="110"/>
			<point x="481" y="99"/>
			<point x="459" y="99" type="curve" smooth="yes"/>
			<point x="371" y="99"/>
			<point x="302" y="199"/>
			<point x="302" y="350" type="curve"/>
			<point x="162" y="350" type="line"/>
			<point x="162" y="140"/>
			<point x="265" y="-10"/>
		</contour>
		<contour>
			<point x="302" y="350" type="line"/>
			<point x="302" y="392"/>
			<point x="355" y="401"/>
			<point x="397" y="401" type="curve" smooth="yes"/>
			<point x="421" y="401"/>
			<point x="482" y="396"/>
			<point x="544" y="376" type="curve"/>
			<point x="544" y="526" type="line"/>
			<point x="485" y="501"/>
			<point x="426" y="494"/>
			<point x="397" y="494" type="curve" smooth="yes"/>
			<point x="357" y="494"/>
			<point x="336" y="488"/>
			<point x="329" y="471" type="curve"/>
			<point x="302" y="471" type="line"/>
		</contour>
		<contour>
			<point x="162" y="350" type="curve"/>
			<point x="189" y="471" type="line"/>
			<point x="166" y="471" type="line"/>
			<point x="166" y="485"/>
			<point x="149" y="494"/>
			<point x="121" y="494" type="curve"/>
			<point x="100" y="494"/>
			<point x="59" y="501"/>
			<point x="25" y="526" type="curve"/>
			<point x="25" y="376" type="line"/>
			<point x="49" y="390"/>
			<point x="100" y="401"/>
			<point x="121" y="401" type="curve" smooth="yes"/>
			<point x="151" y="401"/>
			<point x="162" y="378"/>
		</contour>
		<contour>
			<point x="162" y="350" type="line"/>
			<point x="162" y="322"/>
			<point x="151" y="299"/>
			<point x="121" y="299" type="curve" smooth="yes"/>
			<point x="100" y="299"/>
			<point x="49" y="310"/>
			<point x="25" y="324" type="curve"/>
			<point x="25" y="174" type="line"/>
			<point x="59" y="199"/>
			<point x="100" y="206"/>
			<point x="121" y="206" type="curve"/>
			<point x="149" y="206"/>
			<point x="166" y="215"/>
			<point x="166" y="229" type="curve"/>
			<point x="189" y="229" type="line"/>
		</contour>
		<contour>
			<point x="302" y="350" type="curve"/>
			<point x="302" y="229" type="line"/>
			<point x="329" y="229" type="line"/>
			<point x="336" y="212"/>
			<point x="357" y="206"/>
			<point x="397" y="206" type="curve" smooth="yes"/>
			<point x="426" y="206"/>
			<point x="485" y="199"/>
			<point x="544" y="174" type="curve"/>
			<point x="544" y="324" type="line"/>
			<point x="482" y="304"/>
			<point x="421" y="299"/>
			<point x="397" y="299" type="curve" smooth="yes"/>
			<point x="355" y="299"/>
			<point x="302" y="308"/>
		</contour>
	</outline>
</glyph>
<glyph name="arrowup" format="2">
	<advance width="693"/>
	<unicode hex="2191"/>
	<outline>
		<contour>
			<point x="397" y="660" type="curve"/>
			<point x="297" y="660" type="line"/>
			<point x="297" y="609"/>
			<point x="247" y="460"/>
			<point x="45" y="460" type="curve"/>
			<point x="45" y="312" type="line"/>
			<point x="128" y="312"/>
			<point x="241" y="376"/>
			<point x="284" y="451" type="curve"/>
			<point x="288" y="449" type="line"/>
			<point x="348" y="512"/>
			<point x="397" y="584"/>
		</contour>
		<contour>
			<point x="268" y="35" type="curve"/>
			<point x="425" y="35" type="line"/>
			<point x="405" y="125"/>
			<point x="399" y="192"/>
			<point x="399" y="294" type="curve" smooth="yes"/>
			<point x="399" y="402"/>
			<point x="405" y="477"/>
			<point x="425" y="552" type="curve"/>
			<point x="268" y="552" type="line"/>
			<point x="288" y="477"/>
			<point x="294" y="402"/>
			<point x="294" y="294" type="curve" smooth="yes"/>
			<point x="294" y="192"/>
			<point x="288" y="125"/>
		</contour>
		<contour>
			<point x="396" y="660" type="curve"/>
			<point x="296" y="660" type="line"/>
			<point x="296" y="584"/>
			<point x="345" y="512"/>
			<point x="405" y="449" type="curve"/>
			<point x="409" y="451" type="line"/>
			<point x="452" y="376"/>
			<point x="565" y="312"/>
			<point x="648" y="312" type="curve"/>
			<point x="648" y="460" type="line"/>
			<point x="446" y="460"/>
			<point x="396" y="609"/>
		</contour>
	</outline>
</glyph>
<glyph name="uni2197" format="2">
	<advance width="659"/>
	<unicode hex="2197"/>
	<outline>
		<contour>
			<point x="578" y="514" type="curve"/>
			<point x="508" y="585" type="line"/>
			<point x="472" y="549"/>
			<point x="331" y="479"/>
			<point x="188" y="622" type="curve"/>
			<point x="83" y="517" type="line"/>
			<point x="142" y="458"/>
			<point x="264" y="427"/>
			<point x="348" y="449" type="curve"/>
			<point x="349" y="445" type="line"/>
			<point x="436" y="447"/>
			<point x="525" y="460"/>
		</contour>
		<contour>
			<point x="45" y="163" type="curve"/>
			<point x="156" y="52" type="line"/>
			<point x="209" y="127"/>
			<point x="252" y="179"/>
			<point x="324" y="251" type="curve" smooth="yes"/>
			<point x="400" y="327"/>
			<point x="458" y="376"/>
			<point x="522" y="418" type="curve"/>
			<point x="411" y="529" type="line"/>
			<point x="369" y="465"/>
			<point x="320" y="407"/>
			<point x="244" y="331" type="curve" smooth="yes"/>
			<point x="172" y="259"/>
			<point x="120" y="216"/>
		</contour>
		<contour>
			<point x="578" y="515" type="curve"/>
			<point x="507" y="585" type="line"/>
			<point x="453" y="532"/>
			<point x="452" y="453"/>
			<point x="450" y="366" type="curve"/>
			<point x="454" y="365" type="line"/>
			<point x="431" y="281"/>
			<point x="451" y="149"/>
			<point x="510" y="90" type="curve"/>
			<point x="614" y="195" type="line"/>
			<point x="475" y="335"/>
			<point x="542" y="479"/>
		</contour>
	</outline>
</glyph>
<glyph name=".notdef" format="2">
	<advance width="776"/>
	<outline>
		<contour>
			<point x="191" y="510" type="curve" smooth="yes"/>
			<point x="191" y="531"/>
			<point x="198" y="556"/>
			<point x="233" y="561" type="curve" smooth="yes"/>
			<point x="261" y="565"/>
			<point x="332" y="568"/>
			<point x="391" y="568" type="curve" smooth="yes"/>
			<point x="449" y="568"/>
			<point x="519" y="566"/>
			<point x="547" y="561" type="curve" smooth="yes"/>
			<point x="582" y="554"/>
			<point x="589" y="531"/>
			<point x="589" y="510" type="curve" smooth="yes"/>
			<point x="589" y="489"/>
			<point x="576" y="473"/>
			<point x="490" y="473" type="curve" smooth="yes"/>
			<point x="468" y="473"/>
			<point x="451" y="475"/>
			<point x="436" y="476" type="curve"/>
			<point x="438" y="305" type="line" smooth="yes"/>
			<point x="439" y="281"/>
			<point x="415" y="270"/>
			<point x="391" y="270" type="curve" smooth="yes"/>
			<point x="365" y="270"/>
			<point x="342" y="281"/>
			<point x="342" y="305" type="curve" smooth="yes"/>
			<point x="344" y="476" type="line"/>
			<point x="329" y="475"/>
			<point x="311" y="473"/>
			<point x="290" y="473" type="curve" smooth="yes"/>
			<point x="204" y="473"/>
			<point x="191" y="489"/>
		</contour>
		<contour>
			<point x="196" y="384" type="curve" smooth="yes"/>
			<point x="196" y="408"/>
			<point x="214" y="427"/>
			<point x="239" y="427" type="curve" smooth="yes"/>
			<point x="267" y="427"/>
			<point x="279" y="408"/>
			<point x="279" y="384" type="curve" smooth="yes"/>
			<point x="279" y="355"/>
			<point x="267" y="343"/>
			<point x="239" y="343" type="curve" smooth="yes"/>
			<point x="214" y="343"/>
			<point x="196" y="355"/>
		</contour>
		<contour>
			<point x="496" y="384" type="curve" smooth="yes"/>
			<point x="496" y="408"/>
			<point x="509" y="427"/>
			<point x="535" y="427" type="curve" smooth="yes"/>
			<point x="563" y="427"/>
			<point x="580" y="408"/>
			<point x="580" y="384" type="curve" smooth="yes"/>
			<point x="580" y="355"/>
			<point x="563" y="343"/>
			<point x="535" y="343" type="curve" smooth="yes"/>
			<point x="509" y="343"/>
			<point x="496" y="355"/>
		</contour>
		<contour>
			<point x="197" y="261" type="curve" smooth="yes"/>
			<point x="197" y="287"/>
			<point x="214" y="301"/>
			<point x="233" y="301" type="curve" smooth="yes"/>
			<point x="249" y="301"/>
			<point x="269" y="290"/>
			<point x="279" y="268" type="curve" smooth="yes"/>
			<point x="287" y="253"/>
			<point x="313" y="195"/>
			<point x="391" y="195" type="curve" smooth="yes"/>
			<point x="468" y="195"/>
			<point x="494" y="253"/>
			<point x="501" y="268" type="curve" smooth="yes"/>
			<point x="510" y="290"/>
			<point x="531" y="301"/>
			<point x="547" y="301" type="curve" smooth="yes"/>
			<point x="565" y="301"/>
			<point x="582" y="287"/>
			<point x="582" y="261" type="curve" smooth="yes"/>
			<point x="582" y="168"/>
			<point x="485" y="102"/>
			<point x="391" y="102" type="curve" smooth="yes"/>
			<point x="297" y="102"/>
			<point x="197" y="167"/>
		</contour>
		<contour>
			<point x="388" y="-12" type="curve" smooth="yes"/>
			<point x="588" y="-12"/>
			<point x="751" y="151"/>
			<point x="751" y="350" type="curve" smooth="yes"/>
			<point x="751" y="551"/>
			<point x="588" y="713"/>
			<point x="388" y="713" type="curve" smooth="yes"/>
			<point x="188" y="713"/>
			<point x="25" y="551"/>
			<point x="25" y="350" type="curve" smooth="yes"/>
			<point x="25" y="151"/>
			<point x="188" y="-12"/>
		</contour>
	</outline>
</glyph>
<glyph name="_part.pupil" format="2">
	<advance width="743"/>
	<outline>
		<contour>
			<point x="325" y="296" type="curve" smooth="yes"/>
			<point x="325" y="269"/>
			<point x="341" y="248"/>
			<point x="372" y="248" type="curve" smooth="yes"/>
			<point x="403" y="248"/>
			<point x="420" y="269"/>
			<point x="420" y="296" type="curve" smooth="yes"/>
			<point x="420" y="322"/>
			<point x="403" y="343"/>
			<point x="372" y="343" type="curve" smooth="yes"/>
			<point x="341" y="343"/>
			<point x="325" y="322"/>
		</contour>
	</outline>
</glyph>
